<svg width="273" height="28" viewBox="0 0 273 28" fill="none" xmlns="http://www.w3.org/2000/svg">
<path d="M11.6875 0.732422C11.1396 0.699219 10.5752 0.666016 10.0107 0.632812C9.01465 0.549805 8.03516 0.5 7.03906 0.5C6.67383 0.5 6.30859 0.5 5.94336 0.516602C4.58203 0.549805 3.28711 0.832031 2.04199 1.37988C1.89258 1.41309 1.75977 1.44629 1.62695 1.47949L1.29492 1.5459C1.31152 1.62891 1.31152 1.71191 1.31152 1.79492C1.31152 1.89453 1.31152 2.01074 1.27832 2.11035C0.796875 2.625 0.448242 3.22266 0.249023 3.90332C0.0996094 4.46777 0.0332031 4.94922 0.0166016 5.33105C0.0166016 5.71289 0.0166016 5.99512 0.0166016 6.14453C0.0166016 6.60938 0.0332031 7.07422 0.0498047 7.53906C0.0664062 8.00391 0.0830078 8.45215 0.0996094 8.90039C0.132812 10.0459 0.265625 11.1582 0.498047 12.2373C0.614258 12.8184 0.697266 13.416 0.780273 14.0303C0.813477 14.4287 0.84668 14.8438 0.84668 15.2422C0.84668 15.9062 0.780273 16.5703 0.664062 17.2178C0.581055 17.7988 0.53125 18.4131 0.481445 19.0273C0.481445 19.127 0.481445 19.2432 0.464844 19.3594C0.431641 19.9736 0.415039 20.7539 0.415039 21.667C0.415039 22.5967 0.498047 23.4932 0.680664 24.3564C0.84668 25.2363 1.1123 25.8506 1.49414 26.2158C1.87598 26.5811 2.29102 26.7637 2.72266 26.7637C3.02148 26.7637 3.37012 26.6973 3.75195 26.5645C4.33301 26.332 4.74805 25.9502 5.03027 25.4189C5.2959 24.9043 5.47852 24.3232 5.56152 23.709C5.64453 23.0947 5.67773 22.5137 5.67773 21.999V21.5674C5.67773 21.2686 5.67773 20.9863 5.66113 20.6875C5.64453 20.3057 5.64453 19.9404 5.64453 19.5586V19.3262C5.64453 18.9775 5.66113 18.7119 5.67773 18.5459C5.69434 18.3799 5.76074 18.2471 5.87695 18.1309C5.99316 18.0312 6.17578 17.8984 6.4248 17.749C6.45801 17.7158 6.49121 17.6826 6.54102 17.666C7.00586 17.3672 7.52051 17.1348 8.10156 16.9521C8.68262 16.7861 9.26367 16.6367 9.87793 16.5039C10.6084 16.3379 11.2891 16.1553 11.9199 15.9395C13.4971 15.4082 14.9082 14.6113 16.1533 13.5488C17.415 12.3701 18.1621 11.2744 18.4111 10.2617C18.6436 9.24902 18.7598 8.45215 18.7598 7.87109C18.7598 7.07422 18.627 6.29395 18.3613 5.53027C17.9131 4.21875 17.1162 3.10645 15.9707 2.22656C14.8252 1.34668 13.3975 0.848633 11.6875 0.732422ZM9.31348 3.58789C9.37988 3.57129 9.42969 3.55469 9.47949 3.55469C9.6123 3.55469 9.69531 3.6543 9.69531 3.87012C9.69531 3.95312 9.67871 4.06934 9.64551 4.20215C9.5459 4.23535 9.46289 4.25195 9.39648 4.25195C9.26367 4.25195 9.19727 4.18555 9.19727 4.03613C9.19727 3.93652 9.24707 3.78711 9.31348 3.58789ZM6.45801 4.43457C6.57422 4.38477 6.67383 4.35156 6.74023 4.35156C6.82324 4.35156 6.87305 4.40137 6.87305 4.48438L6.85645 4.56738C6.74023 4.61719 6.65723 4.63379 6.59082 4.63379C6.49121 4.63379 6.45801 4.60059 6.45801 4.50098V4.43457ZM5.52832 5.69629C5.3457 5.53027 5.16309 5.34766 4.98047 5.16504C4.88086 5.04883 4.78125 4.94922 4.69824 4.86621C4.81445 4.84961 4.93066 4.84961 5.01367 4.84961C5.09668 4.84961 5.16309 4.84961 5.21289 4.86621C5.3291 4.88281 5.39551 4.94922 5.44531 5.06543C5.47852 5.19824 5.51172 5.41406 5.52832 5.69629ZM4.2168 13.3164C4.2334 13.333 4.2334 13.3496 4.25 13.3662C4.46582 13.6982 4.66504 13.9971 4.83105 14.2461C4.36621 14.2295 4.11719 14.0635 4.11719 13.7314C4.11719 13.6152 4.15039 13.4824 4.2168 13.3164ZM3.40332 5.09863C3.48633 5.09863 3.53613 5.11523 3.55273 5.16504C3.56934 5.21484 3.56934 5.26465 3.56934 5.29785C3.56934 5.33105 3.56934 5.36426 3.55273 5.39746C3.53613 5.46387 3.48633 5.49707 3.40332 5.49707V5.09863ZM2.87207 7.58887C3.10449 7.48926 3.30371 7.42285 3.43652 7.42285C3.60254 7.42285 3.68555 7.50586 3.68555 7.67188C3.68555 7.70508 3.66895 7.75488 3.66895 7.78809C3.43652 7.8877 3.2373 7.9541 3.10449 7.9541C2.93848 7.9541 2.85547 7.87109 2.85547 7.70508C2.85547 7.67188 2.87207 7.62207 2.87207 7.58887ZM3.27051 9.74707C3.1543 9.79688 3.07129 9.81348 3.00488 9.81348C2.90527 9.81348 2.87207 9.76367 2.87207 9.68066V9.61426C2.98828 9.56445 3.08789 9.53125 3.1543 9.53125C3.2373 9.53125 3.28711 9.58105 3.28711 9.66406L3.27051 9.74707ZM4.48242 17.4336H3.30371L3.43652 17.2676C3.71875 16.9023 3.98438 16.5371 4.2666 16.1885C4.2666 16.2051 4.2832 16.2383 4.2998 16.2881C4.34961 16.3711 4.43262 16.5039 4.51562 16.6533C4.59863 16.8027 4.66504 16.9521 4.71484 17.0684C4.76465 17.1846 4.78125 17.2676 4.78125 17.3174V17.334L4.48242 17.4336ZM4.76465 16.5205C4.81445 16.4375 4.86426 16.2881 4.91406 16.0723C4.96387 15.873 4.99707 15.6572 5.04688 15.4248C5.09668 15.1924 5.12988 14.9932 5.16309 14.8271C5.19629 14.6611 5.21289 14.5781 5.21289 14.5615C5.24609 14.5449 5.2959 14.5283 5.3291 14.5283C5.37891 14.5283 5.42871 14.5615 5.47852 14.6113C5.56152 14.6943 5.64453 14.7939 5.72754 14.9434C5.79395 15.0928 5.86035 15.2422 5.91016 15.3916C5.95996 15.541 6.00977 15.6406 6.04297 15.707C5.76074 15.8896 5.46191 16.0723 5.16309 16.2549L4.76465 16.5205ZM9.81152 11.8721C9.5957 11.8555 9.37988 11.8389 9.16406 11.8389C8.68262 11.8389 8.20117 11.9053 7.71973 12.0215C7.02246 12.1875 6.3584 12.4033 5.71094 12.6523C5.67773 12.3535 5.66113 12.0547 5.66113 11.7393V11.208C5.66113 10.8262 5.62793 10.4277 5.56152 10.0459C5.49512 9.78027 5.46191 9.58105 5.44531 9.44824C5.42871 9.33203 5.42871 9.21582 5.42871 9.13281V9.0166C5.44531 8.91699 5.46191 8.80078 5.49512 8.66797C5.52832 8.51855 5.56152 8.30273 5.61133 8.02051C5.64453 7.82129 5.64453 7.65527 5.64453 7.50586V7.35645C5.64453 7.14062 5.67773 6.94141 5.72754 6.75879C5.77734 6.57617 5.94336 6.39355 6.19238 6.21094C6.50781 5.99512 6.87305 5.87891 7.28809 5.87891C7.70312 5.87891 8.10156 5.91211 8.5 5.96191C8.69922 5.99512 8.88184 6.01172 9.06445 6.02832C9.14746 6.04492 9.24707 6.04492 9.34668 6.06152C9.77832 6.07812 10.21 6.12793 10.625 6.19434C11.04 6.27734 11.4551 6.42676 11.8369 6.65918C11.9365 6.70898 12.1191 6.8418 12.4014 7.04102C12.6836 7.25684 12.9492 7.45605 13.1982 7.67188C13.4473 7.8877 13.5967 8.02051 13.6133 8.10352V8.15332C13.6133 8.51855 13.3643 8.9502 12.8662 9.44824C12.3516 9.97949 11.7705 10.4775 11.1562 10.9258C10.542 11.3906 10.0938 11.7061 9.81152 11.8721ZM14.9082 5.28125C15.2402 5.44727 15.5889 5.59668 15.9209 5.7627C15.5889 5.8125 15.2402 5.87891 14.9082 5.92871V5.28125ZM16.1699 9.16602C16.1533 9.0498 16.1035 8.90039 16.0537 8.70117C15.9375 8.35254 15.8379 8.02051 15.7715 7.72168C15.7051 7.42285 15.6719 7.22363 15.6719 7.09082C15.6719 6.9248 15.7051 6.79199 15.7715 6.70898C15.8213 6.8584 15.8877 7.02441 15.9375 7.19043C16.0039 7.47266 16.0869 7.67188 16.1699 7.78809C16.2695 7.9209 16.3691 7.9873 16.4688 7.9873C16.5684 7.9873 16.668 7.9541 16.8008 7.8877C16.585 8.30273 16.3857 8.73438 16.1699 9.16602ZM35.793 17.6992C35.1123 15.7236 34.4648 13.748 33.8838 11.7559C33.1699 9.26562 32.3564 6.80859 31.4434 4.40137C31.1943 3.6543 30.8125 2.94043 30.3311 2.25977C29.833 1.5791 29.1523 1.19727 28.3057 1.11426C27.3262 1.13086 26.5957 1.49609 26.1143 2.24316C25.6328 2.99023 25.2676 3.77051 25.0186 4.58398C24.4375 6.32715 23.873 8.10352 23.3584 9.87988C23.2588 10.2285 23.1592 10.6104 23.0596 10.9922C22.877 11.7559 22.6611 12.5029 22.3955 13.2334C22.1133 13.9805 21.7148 14.6113 21.1836 15.126C20.752 15.4912 20.2871 15.79 19.7725 16.0391C19.208 16.3047 18.71 16.6533 18.2617 17.0684C18.0127 17.334 17.8467 17.583 17.7637 17.832C17.6807 18.0811 17.6143 18.3799 17.5645 18.7285V20.2393C17.8467 20.4551 18.1123 20.6875 18.3945 20.9199C18.7432 21.0693 18.9258 21.252 18.9258 21.4844C18.9258 21.667 18.8096 21.8828 18.5771 22.1152C18.3613 22.5967 18.1621 23.0781 18.0127 23.5928C17.9629 23.8418 17.9463 24.1074 17.9463 24.4062C17.9463 24.5723 17.9463 24.7383 17.9629 24.9209C18.0127 25.4023 18.1787 25.8008 18.4775 26.1162C18.627 26.2324 18.8428 26.332 19.1582 26.3984C19.457 26.4814 19.7559 26.5312 20.0547 26.5811C20.3037 26.6143 20.5029 26.6475 20.6523 26.6807C21.1006 26.8135 21.4658 26.8799 21.7646 26.8799C21.8975 26.8799 22.0137 26.8799 22.1133 26.8467C22.4453 26.7637 22.8271 26.4316 23.2588 25.8506C23.6406 25.2695 23.9395 24.6055 24.1221 23.8252C24.2383 23.3604 24.3877 22.9121 24.5703 22.4971C24.7363 22.082 24.9688 21.7334 25.2842 21.4512C25.7822 21.0693 26.3965 20.8535 27.127 20.7705C27.8408 20.7041 28.4385 20.6709 28.8701 20.6709C29.1689 20.6709 29.4512 20.6709 29.7002 20.7041C29.8828 20.9697 30.082 21.0859 30.2646 21.0859C30.3975 21.0859 30.5303 21.0195 30.6631 20.8701C30.7461 20.8037 30.8291 20.7539 30.8955 20.7539C31.0615 20.7539 31.2109 20.9365 31.3438 21.2686C31.5762 21.5674 31.709 21.916 31.7588 22.3311C31.792 22.6465 31.8916 23.0117 32.0576 23.4268C32.1738 23.6924 32.29 23.9746 32.4062 24.29C32.6221 24.9209 32.9043 25.502 33.2363 26.0332C33.5684 26.5811 34.0498 26.8965 34.6973 27.0127C34.8467 27.0293 34.9795 27.0293 35.1123 27.0293C36.0254 27.0293 36.6396 26.7305 36.9551 26.1328C37.2373 25.6016 37.3701 24.9707 37.3701 24.207C37.3701 23.9746 37.3701 23.7422 37.3369 23.4932C37.2207 22.4307 37.0049 21.3848 36.6895 20.3389C36.374 19.293 36.0918 18.4795 35.8594 17.8818C35.8428 17.8154 35.8096 17.749 35.793 17.6992ZM23.3916 17.0684C23.3252 17.0684 23.2754 17.0352 23.2588 16.9854C23.2422 16.9355 23.2256 16.9023 23.2256 16.8691C23.2256 16.8359 23.2256 16.8027 23.2422 16.7695C23.2754 16.7031 23.3252 16.6699 23.3916 16.6699V17.0684ZM23.8232 18.2637C23.707 18.2637 23.6406 18.2139 23.6074 18.1143C23.5742 18.0146 23.5742 17.9316 23.5742 17.8652C23.5742 17.7988 23.5742 17.7324 23.5908 17.666C23.6406 17.5332 23.707 17.4668 23.8232 17.4668V18.2637ZM24.7197 20.1064C24.6035 20.1562 24.5205 20.1729 24.4541 20.1729C24.3545 20.1729 24.3213 20.1396 24.3213 20.04V19.9736C24.4375 19.9238 24.5371 19.8906 24.6035 19.8906C24.6865 19.8906 24.7363 19.9404 24.7363 20.0234L24.7197 20.1064ZM29.4678 5.08203V5.72949C29.2021 5.56348 28.9531 5.38086 28.6875 5.21484C28.9531 5.16504 29.2021 5.13184 29.4678 5.08203ZM29.501 6.45996C29.501 6.54297 29.4844 6.57617 29.4346 6.59277C29.3848 6.60938 29.335 6.62598 29.3018 6.62598C29.2686 6.62598 29.2354 6.62598 29.2021 6.60938C29.1357 6.59277 29.1025 6.54297 29.1025 6.45996H29.501ZM29.3682 18.2637C29.2852 18.2637 29.2354 18.2305 29.2188 18.1807C29.2021 18.1309 29.2021 18.0977 29.2021 18.0645C29.2021 18.0312 29.2021 17.998 29.2188 17.9648C29.2354 17.8984 29.2852 17.8652 29.3682 17.8652V18.2637ZM26.7949 15.8398L27.625 13.9141C27.8076 13.4658 28.0068 13.0176 28.2061 12.5693C28.5215 12.8848 28.7705 13.2666 28.9365 13.6982C29.0859 14.1465 29.2188 14.5947 29.3184 15.0596C29.3848 15.3252 29.4512 15.5908 29.5342 15.8398H26.7949ZM30.1484 13.084C30.082 13.084 30.0322 13.0508 30.0156 13.001C29.999 12.9512 29.999 12.918 29.999 12.8848C29.999 12.8516 29.999 12.8184 30.0156 12.7852C30.0322 12.7188 30.082 12.6855 30.1484 12.6855V13.084ZM31.1943 11.6562C31.46 11.6064 31.7256 11.5566 31.9746 11.5068C32.041 11.4736 32.1074 11.4736 32.1572 11.4736C32.29 11.4736 32.3564 11.5566 32.3564 11.7559C32.3564 11.8555 32.3398 11.9551 32.3066 12.0879L32.041 12.3535C31.7588 12.1211 31.4766 11.8887 31.1943 11.6562ZM32.5391 20.2393C32.4727 20.2393 32.4229 20.2061 32.4062 20.1562C32.3896 20.1064 32.373 20.0732 32.373 20.04C32.373 20.0068 32.373 19.9736 32.3896 19.9404C32.4229 19.874 32.4727 19.8408 32.5391 19.8408V20.2393ZM32.5225 14.877L32.4561 14.7773C32.2402 14.4619 32.0908 14.2129 31.9912 14.0469C32.1572 14.0137 32.2734 13.9971 32.3564 13.9971H32.4062C32.4893 14.0137 32.5391 14.0801 32.5557 14.2129C32.5557 14.3457 32.5391 14.5615 32.5225 14.877ZM34.1992 20.1729H34.166C34.0664 20.1729 34 20.123 33.9336 20.04C33.8838 19.9736 33.8672 19.9072 33.8672 19.8408C33.8672 19.791 33.8672 19.7578 33.8838 19.7246C33.917 19.6084 34.0166 19.542 34.1992 19.5088V20.1729ZM39.8604 6.32715C39.8604 6.31055 39.8604 6.31055 39.877 6.31055V6.27734C39.8438 6.31055 39.8271 6.32715 39.8271 6.34375C39.8271 6.36035 39.8271 6.36035 39.8271 6.36035C39.8438 6.34375 39.8438 6.34375 39.8604 6.32715ZM56.0635 4.7832C55.6484 4.30176 55.1338 3.75391 54.5195 3.15625C53.9053 2.55859 53.2578 2.02734 52.5605 1.5791C51.8633 1.13086 51.166 0.881836 50.4854 0.832031C50.2031 0.832031 49.8711 0.881836 49.5225 0.981445C49.1738 1.08105 48.792 1.14746 48.4102 1.16406H47.3145C46.9658 1.16406 46.6338 1.16406 46.3018 1.19727C45.8701 1.23047 45.4053 1.34668 44.9072 1.5293C43.6455 2.01074 42.5498 2.70801 41.6367 3.62109C40.7236 4.53418 40.1426 5.41406 39.9102 6.26074C39.6777 7.10742 39.5615 7.77148 39.5615 8.26953C39.5615 9.0332 39.7109 9.83008 40.0264 10.6602C40.4082 11.5732 40.9062 12.2871 41.5371 12.8018C42.1514 13.3164 42.8984 13.7646 43.7783 14.1133C44.1602 14.2627 44.542 14.4619 44.8906 14.6777L45.3887 15.0098C45.5215 15.2754 45.6543 15.4082 45.7871 15.4082C45.8867 15.4082 45.9863 15.3252 46.0859 15.1924C46.3018 15.3252 46.5508 15.4746 46.8164 15.6406C47.2646 15.9229 47.7295 16.2051 48.1777 16.4541C48.3271 16.5371 48.4766 16.6201 48.626 16.7031C49.207 16.9854 49.8047 17.334 50.3857 17.7324C50.9668 18.1309 51.3154 18.4795 51.4316 18.7949C51.5312 19.1104 51.5977 19.3096 51.5977 19.4258C51.5977 19.8408 51.3486 20.2725 50.8506 20.7539C50.0537 21.4678 49.207 21.8164 48.2939 21.8164H48.2109C47.2646 21.7998 46.4014 21.4346 45.6211 20.7539C45.2061 20.3887 44.9404 20.04 44.791 19.7246C44.6416 19.4092 44.5254 19.0605 44.459 18.6787C44.3926 18.3633 44.293 18.0146 44.1602 17.5996C44.0107 17.1846 43.7949 16.7529 43.4961 16.3047C43.1807 15.8564 42.832 15.5244 42.4336 15.292C42.002 15.0762 41.6201 14.9766 41.2715 14.9766C40.8564 14.9766 40.5078 15.126 40.2256 15.458C39.7109 16.0391 39.3955 16.7031 39.2793 17.4502C39.1631 18.1973 39.1133 18.7949 39.1133 19.2432C39.1133 19.6084 39.1465 19.957 39.1963 20.2891C39.4785 21.6338 40.1758 22.8623 41.2881 23.9746C42.3838 25.1035 43.5625 25.9336 44.8408 26.4482C45.7871 26.8135 46.7666 26.9961 47.7959 26.9961C48.2607 26.9961 48.7422 26.9629 49.2402 26.8799C50.7676 26.6143 52.1621 26.0332 53.4404 25.1533C54.7021 24.2734 55.6484 23.1445 56.2627 21.7832C56.6445 20.8701 56.8438 20.0234 56.8438 19.2266C56.8438 18.6289 56.7275 18.0811 56.5117 17.5498C55.9971 16.3379 55.167 15.292 53.9883 14.4287C52.8096 13.5654 51.5645 12.8682 50.2529 12.3203C49.7549 12.1211 49.0576 11.7891 48.1777 11.3076C47.2979 10.8428 46.5674 10.3281 45.9863 9.76367C45.4219 9.18262 45.123 8.63477 45.123 8.10352C45.123 7.9209 45.1562 7.75488 45.2061 7.57227C45.4551 7.07422 45.8867 6.72559 46.5176 6.54297C47.1484 6.36035 47.6631 6.26074 48.0781 6.26074C48.2109 6.26074 48.3438 6.27734 48.4766 6.29395C49.5723 6.50977 50.4023 7.09082 50.9502 8.05371C51.0996 8.31934 51.2324 8.58496 51.3486 8.83398C51.4814 9.14941 51.6309 9.43164 51.8135 9.71387C51.9795 9.99609 52.2119 10.2451 52.5107 10.4941C52.9424 10.8096 53.374 10.9922 53.8223 11.042C54.2539 11.0918 54.5361 11.1084 54.6689 11.1084C55.2168 11.1084 55.6982 10.9922 56.1133 10.7432C56.4951 10.4443 56.7773 9.97949 56.96 9.34863C57.1426 8.73438 57.2256 8.20312 57.2256 7.78809C57.2256 7.67188 57.2256 7.55566 57.209 7.45605C57.1758 7.33984 57.0762 7.09082 56.9268 6.72559C56.7607 6.36035 56.5947 5.99512 56.4287 5.61328C56.3125 5.38086 56.2295 5.18164 56.1631 5.03223C56.0967 4.88281 56.0635 4.7998 56.0635 4.7832ZM43.3633 6.69238C43.4297 6.69238 43.4795 6.70898 43.4961 6.75879C43.5127 6.80859 43.5293 6.8584 43.5293 6.8916C43.5293 6.9248 43.5293 6.95801 43.5127 6.99121C43.4795 7.05762 43.4297 7.09082 43.3633 7.09082V6.69238ZM43.0312 9.34863C43.1309 9.49805 43.2139 9.64746 43.2969 9.78027C43.3799 9.91309 43.4795 10.0459 43.5625 10.1953C43.5459 10.2119 43.5293 10.2119 43.5127 10.2119C43.3965 10.2285 43.2803 10.2451 43.1807 10.2451H43.0811C42.9648 10.2451 42.8984 10.2119 42.8818 10.1289C42.8652 10.0459 42.8652 9.99609 42.8652 9.97949C42.8652 9.86328 42.915 9.64746 43.0312 9.34863ZM50.2695 4.48438C50.4854 4.36816 50.668 4.23535 50.8506 4.11914L51.1162 3.95312V4.01953C51.1494 4.15234 51.166 4.26855 51.166 4.36816V4.45117C51.1494 4.56738 51.1162 4.63379 51.0498 4.65039C50.9834 4.66699 50.9336 4.66699 50.9004 4.66699C50.7676 4.66699 50.5518 4.61719 50.2695 4.48438ZM51.8467 5.49707C51.7637 5.49707 51.7305 5.46387 51.7139 5.41406C51.6973 5.36426 51.6807 5.33105 51.6807 5.29785C51.6807 5.26465 51.6807 5.23145 51.6973 5.19824C51.7139 5.13184 51.7637 5.09863 51.8467 5.09863V5.49707ZM53.3076 6.29395C53.374 6.29395 53.4238 6.31055 53.4404 6.36035C53.457 6.41016 53.4736 6.45996 53.4736 6.49316C53.4736 6.52637 53.457 6.55957 53.4404 6.59277C53.4238 6.65918 53.374 6.69238 53.3076 6.69238V6.29395ZM53.042 5.49707C52.959 5.49707 52.9092 5.46387 52.8926 5.41406C52.876 5.36426 52.876 5.33105 52.876 5.29785C52.876 5.26465 52.876 5.23145 52.8926 5.19824C52.9092 5.13184 52.959 5.09863 53.042 5.09863V5.49707ZM53.2412 7.80469C53.1582 7.62207 53.1084 7.47266 53.1084 7.35645C53.1084 7.20703 53.208 7.12402 53.374 7.12402H53.4238C53.5732 7.35645 53.6562 7.53906 53.6562 7.65527C53.6562 7.77148 53.5732 7.82129 53.4238 7.82129C53.374 7.82129 53.3076 7.82129 53.2412 7.80469ZM54.3867 7.19043C54.3867 6.9082 54.4365 6.75879 54.5527 6.70898C54.6523 6.67578 54.7354 6.64258 54.7686 6.64258C54.9014 6.64258 55.0508 6.74219 55.2002 6.9248C54.9346 7.00781 54.6689 7.10742 54.3867 7.19043ZM60.9775 6.32715C60.9775 6.31055 60.9775 6.31055 60.9941 6.31055V6.27734C60.9609 6.31055 60.9443 6.32715 60.9443 6.34375C60.9443 6.36035 60.9443 6.36035 60.9443 6.36035C60.9609 6.34375 60.9609 6.34375 60.9775 6.32715ZM77.1807 4.7832C76.7656 4.30176 76.251 3.75391 75.6367 3.15625C75.0225 2.55859 74.375 2.02734 73.6777 1.5791C72.9805 1.13086 72.2832 0.881836 71.6025 0.832031C71.3203 0.832031 70.9883 0.881836 70.6396 0.981445C70.291 1.08105 69.9092 1.14746 69.5273 1.16406H68.4316C68.083 1.16406 67.751 1.16406 67.4189 1.19727C66.9873 1.23047 66.5225 1.34668 66.0244 1.5293C64.7627 2.01074 63.667 2.70801 62.7539 3.62109C61.8408 4.53418 61.2598 5.41406 61.0273 6.26074C60.7949 7.10742 60.6787 7.77148 60.6787 8.26953C60.6787 9.0332 60.8281 9.83008 61.1436 10.6602C61.5254 11.5732 62.0234 12.2871 62.6543 12.8018C63.2686 13.3164 64.0156 13.7646 64.8955 14.1133C65.2773 14.2627 65.6592 14.4619 66.0078 14.6777L66.5059 15.0098C66.6387 15.2754 66.7715 15.4082 66.9043 15.4082C67.0039 15.4082 67.1035 15.3252 67.2031 15.1924C67.4189 15.3252 67.668 15.4746 67.9336 15.6406C68.3818 15.9229 68.8467 16.2051 69.2949 16.4541C69.4443 16.5371 69.5938 16.6201 69.7432 16.7031C70.3242 16.9854 70.9219 17.334 71.5029 17.7324C72.084 18.1309 72.4326 18.4795 72.5488 18.7949C72.6484 19.1104 72.7148 19.3096 72.7148 19.4258C72.7148 19.8408 72.4658 20.2725 71.9678 20.7539C71.1709 21.4678 70.3242 21.8164 69.4111 21.8164H69.3281C68.3818 21.7998 67.5186 21.4346 66.7383 20.7539C66.3232 20.3887 66.0576 20.04 65.9082 19.7246C65.7588 19.4092 65.6426 19.0605 65.5762 18.6787C65.5098 18.3633 65.4102 18.0146 65.2773 17.5996C65.1279 17.1846 64.9121 16.7529 64.6133 16.3047C64.2979 15.8564 63.9492 15.5244 63.5508 15.292C63.1191 15.0762 62.7373 14.9766 62.3887 14.9766C61.9736 14.9766 61.625 15.126 61.3428 15.458C60.8281 16.0391 60.5127 16.7031 60.3965 17.4502C60.2803 18.1973 60.2305 18.7949 60.2305 19.2432C60.2305 19.6084 60.2637 19.957 60.3135 20.2891C60.5957 21.6338 61.293 22.8623 62.4053 23.9746C63.501 25.1035 64.6797 25.9336 65.958 26.4482C66.9043 26.8135 67.8838 26.9961 68.9131 26.9961C69.3779 26.9961 69.8594 26.9629 70.3574 26.8799C71.8848 26.6143 73.2793 26.0332 74.5576 25.1533C75.8193 24.2734 76.7656 23.1445 77.3799 21.7832C77.7617 20.8701 77.9609 20.0234 77.9609 19.2266C77.9609 18.6289 77.8447 18.0811 77.6289 17.5498C77.1143 16.3379 76.2842 15.292 75.1055 14.4287C73.9268 13.5654 72.6816 12.8682 71.3701 12.3203C70.8721 12.1211 70.1748 11.7891 69.2949 11.3076C68.415 10.8428 67.6846 10.3281 67.1035 9.76367C66.5391 9.18262 66.2402 8.63477 66.2402 8.10352C66.2402 7.9209 66.2734 7.75488 66.3232 7.57227C66.5723 7.07422 67.0039 6.72559 67.6348 6.54297C68.2656 6.36035 68.7803 6.26074 69.1953 6.26074C69.3281 6.26074 69.4609 6.27734 69.5938 6.29395C70.6895 6.50977 71.5195 7.09082 72.0674 8.05371C72.2168 8.31934 72.3496 8.58496 72.4658 8.83398C72.5986 9.14941 72.748 9.43164 72.9307 9.71387C73.0967 9.99609 73.3291 10.2451 73.6279 10.4941C74.0596 10.8096 74.4912 10.9922 74.9395 11.042C75.3711 11.0918 75.6533 11.1084 75.7861 11.1084C76.334 11.1084 76.8154 10.9922 77.2305 10.7432C77.6123 10.4443 77.8945 9.97949 78.0771 9.34863C78.2598 8.73438 78.3428 8.20312 78.3428 7.78809C78.3428 7.67188 78.3428 7.55566 78.3262 7.45605C78.293 7.33984 78.1934 7.09082 78.0439 6.72559C77.8779 6.36035 77.7119 5.99512 77.5459 5.61328C77.4297 5.38086 77.3467 5.18164 77.2803 5.03223C77.2139 4.88281 77.1807 4.7998 77.1807 4.7832ZM64.4805 6.69238C64.5469 6.69238 64.5967 6.70898 64.6133 6.75879C64.6299 6.80859 64.6465 6.8584 64.6465 6.8916C64.6465 6.9248 64.6465 6.95801 64.6299 6.99121C64.5967 7.05762 64.5469 7.09082 64.4805 7.09082V6.69238ZM64.1484 9.34863C64.248 9.49805 64.3311 9.64746 64.4141 9.78027C64.4971 9.91309 64.5967 10.0459 64.6797 10.1953C64.6631 10.2119 64.6465 10.2119 64.6299 10.2119C64.5137 10.2285 64.3975 10.2451 64.2979 10.2451H64.1982C64.082 10.2451 64.0156 10.2119 63.999 10.1289C63.9824 10.0459 63.9824 9.99609 63.9824 9.97949C63.9824 9.86328 64.0322 9.64746 64.1484 9.34863ZM71.3867 4.48438C71.6025 4.36816 71.7852 4.23535 71.9678 4.11914L72.2334 3.95312V4.01953C72.2666 4.15234 72.2832 4.26855 72.2832 4.36816V4.45117C72.2666 4.56738 72.2334 4.63379 72.167 4.65039C72.1006 4.66699 72.0508 4.66699 72.0176 4.66699C71.8848 4.66699 71.6689 4.61719 71.3867 4.48438ZM72.9639 5.49707C72.8809 5.49707 72.8477 5.46387 72.8311 5.41406C72.8145 5.36426 72.7979 5.33105 72.7979 5.29785C72.7979 5.26465 72.7979 5.23145 72.8145 5.19824C72.8311 5.13184 72.8809 5.09863 72.9639 5.09863V5.49707ZM74.4248 6.29395C74.4912 6.29395 74.541 6.31055 74.5576 6.36035C74.5742 6.41016 74.5908 6.45996 74.5908 6.49316C74.5908 6.52637 74.5742 6.55957 74.5576 6.59277C74.541 6.65918 74.4912 6.69238 74.4248 6.69238V6.29395ZM74.1592 5.49707C74.0762 5.49707 74.0264 5.46387 74.0098 5.41406C73.9932 5.36426 73.9932 5.33105 73.9932 5.29785C73.9932 5.26465 73.9932 5.23145 74.0098 5.19824C74.0264 5.13184 74.0762 5.09863 74.1592 5.09863V5.49707ZM74.3584 7.80469C74.2754 7.62207 74.2256 7.47266 74.2256 7.35645C74.2256 7.20703 74.3252 7.12402 74.4912 7.12402H74.541C74.6904 7.35645 74.7734 7.53906 74.7734 7.65527C74.7734 7.77148 74.6904 7.82129 74.541 7.82129C74.4912 7.82129 74.4248 7.82129 74.3584 7.80469ZM75.5039 7.19043C75.5039 6.9082 75.5537 6.75879 75.6699 6.70898C75.7695 6.67578 75.8525 6.64258 75.8857 6.64258C76.0186 6.64258 76.168 6.74219 76.3174 6.9248C76.0518 7.00781 75.7861 7.10742 75.5039 7.19043ZM86.8926 18.2471C86.6768 17.5332 86.5605 16.9355 86.5605 16.4873C86.5605 16.0391 86.5605 15.7568 86.5605 15.624C86.5605 15.0098 86.5771 14.4287 86.627 13.8975C86.6436 13.8809 86.6436 13.8643 86.6436 13.8477C86.793 11.7725 86.876 9.58105 86.876 7.29004C86.876 7.07422 86.876 6.8252 86.8926 6.57617C86.9092 6.32715 86.9092 6.07812 86.9092 5.8291C86.9092 5.44727 86.8926 5.06543 86.876 4.65039C86.8262 3.96973 86.6934 3.33887 86.4775 2.75781C86.2451 2.17676 85.8467 1.74512 85.2988 1.42969C84.834 1.19727 84.4189 1.08105 84.0371 1.08105C83.7549 1.08105 83.5059 1.14746 83.2734 1.28027C82.7588 1.5957 82.3438 2.09375 82.0615 2.79102C81.7793 3.50488 81.5801 4.23535 81.4639 4.98242C81.3477 5.74609 81.2979 6.39355 81.2979 6.9248V7.05762C81.3311 8.56836 81.4141 10.0957 81.5469 11.6064C81.7129 13.3496 81.7959 15.0762 81.7959 16.8193V17.0684C81.7959 18.4463 81.7129 19.8242 81.5303 21.2021C81.5137 21.2852 81.5137 21.3516 81.4971 21.418C81.3809 22.0156 81.3311 22.4805 81.3145 22.8291C81.2979 23.1777 81.2979 23.4102 81.2979 23.4932C81.2979 24.041 81.3975 24.5557 81.5801 25.0537C81.6631 25.2695 81.7627 25.4521 81.8789 25.6016C81.9951 25.751 82.1113 25.9004 82.2441 26.0332C82.3271 26.1328 82.4268 26.2324 82.5264 26.3486C82.4766 26.2988 82.46 26.2822 82.46 26.2656H82.4932C82.5264 26.2822 82.5928 26.3486 82.709 26.4316C82.8086 26.5146 82.9248 26.6143 83.041 26.7305C83.1572 26.8467 83.2568 26.9629 83.3564 27.0625C83.4561 27.1787 83.5225 27.2451 83.5391 27.2783C83.5557 27.3115 83.5723 27.3281 83.5723 27.3447C83.5723 27.3613 83.5723 27.3613 83.5557 27.3613C83.5391 27.3613 83.5225 27.3613 83.4893 27.3447C83.7217 27.4277 83.9873 27.4609 84.2695 27.4609C84.585 27.4609 84.9502 27.4111 85.3486 27.3115C86.0957 27.1289 86.627 26.8301 86.9424 26.415C87.0752 26.1826 87.1416 25.9004 87.1416 25.5518V25.4688C87.125 25.0869 87.0918 24.7051 87.0254 24.29C86.9756 23.875 86.9424 23.5098 86.9424 23.1943V22.9121C86.9756 22.5635 87.0088 22.2314 87.0586 21.916C87.1416 21.3018 87.1914 20.8535 87.208 20.5381C87.208 20.2393 87.208 20.0732 87.208 20.0566C87.208 19.4922 87.1084 18.8945 86.8926 18.2471ZM84.1699 9C84.1533 8.93359 84.1367 8.88379 84.1367 8.85059C84.1367 8.70117 84.2363 8.63477 84.4688 8.63477C84.5518 8.63477 84.6514 8.65137 84.7842 8.66797C84.8174 8.76758 84.834 8.85059 84.834 8.91699C84.834 9.0498 84.7676 9.11621 84.6182 9.11621C84.5186 9.11621 84.3691 9.06641 84.1699 9ZM85.2822 19.2764C85.166 19.3262 85.083 19.3428 85.0166 19.3428C84.917 19.3428 84.8838 19.3096 84.8838 19.21V19.1436C85 19.0938 85.0996 19.0605 85.166 19.0605C85.249 19.0605 85.2988 19.1104 85.2988 19.1934L85.2822 19.2764ZM109.271 10.8594C109.056 10.2119 108.923 9.54785 108.84 8.86719C108.757 8.05371 108.558 7.24023 108.226 6.44336C107.611 5.16504 106.781 4.01953 105.769 3.02344C104.706 1.94434 103.826 1.34668 103.129 1.19727C102.448 1.06445 101.834 0.998047 101.303 0.998047C100.705 0.998047 100.058 1.04785 99.3438 1.16406C98.9121 1.21387 98.5137 1.23047 98.1484 1.23047H97.8994C97.3018 1.23047 96.7041 1.33008 96.1064 1.5459C95.0938 1.99414 94.2139 2.6416 93.4834 3.48828C93.002 3.98633 92.6367 4.46777 92.3545 4.93262C92.0723 5.39746 91.8564 5.96191 91.6904 6.62598C91.5908 6.99121 91.4414 7.37305 91.2422 7.77148C91.0264 8.20312 90.8936 8.55176 90.8105 8.83398C90.7441 9.11621 90.7109 9.33203 90.7109 9.46484C90.7109 9.71387 90.7773 9.96289 90.9268 10.1953C90.5117 10.3115 90.2627 10.4443 90.1963 10.627C90.1299 10.793 90.0967 10.9756 90.0967 11.1748C90.0967 11.291 90.0967 11.4072 90.1133 11.54C90.1299 11.7061 90.1299 11.8887 90.1299 12.0879C90.1465 12.4365 90.1465 12.8018 90.1465 13.167V13.748C90.1465 14.3291 90.1631 14.9102 90.1797 15.4912C90.2627 17.3008 90.6777 19.0439 91.4248 20.7207C92.1055 22.3643 93.0518 23.7588 94.2637 24.9209C95.4756 26.0996 97.0029 26.7969 98.8125 27.0127C99.1279 27.0459 99.4434 27.0625 99.7422 27.0625C101.137 27.0625 102.448 26.7471 103.693 26.1328C105.204 25.3857 106.416 24.2568 107.329 22.7461C108.342 21.0693 109.006 19.4424 109.321 17.8984C109.653 16.3545 109.803 15.1592 109.803 14.2793C109.803 13.1006 109.637 11.9551 109.271 10.8594ZM93.0518 13.2334C93.002 12.9512 92.9355 12.6689 92.8857 12.3867H94.0977L93.6992 12.7188C93.4834 12.8848 93.2676 13.0674 93.0518 13.2334ZM103.992 4.7998C104.009 4.86621 104.025 4.91602 104.025 4.96582C104.025 5.11523 103.909 5.18164 103.693 5.18164C103.61 5.18164 103.494 5.16504 103.378 5.14844C103.345 5.04883 103.328 4.96582 103.328 4.89941C103.328 4.7666 103.395 4.68359 103.544 4.68359C103.66 4.68359 103.81 4.7334 103.992 4.7998ZM102.813 4.7998C102.896 4.98242 102.93 5.13184 102.93 5.23145C102.93 5.41406 102.83 5.49707 102.631 5.49707H102.614C102.465 5.26465 102.398 5.08203 102.398 4.96582C102.398 4.84961 102.465 4.7832 102.631 4.7832C102.681 4.7832 102.747 4.7832 102.813 4.7998ZM95.8574 5.92871C95.9238 5.92871 95.9736 5.94531 95.9902 5.99512C96.0068 6.04492 96.0234 6.09473 96.0234 6.12793C96.0234 6.16113 96.0068 6.19434 95.9902 6.22754C95.9736 6.29395 95.9238 6.32715 95.8574 6.32715V5.92871ZM101.552 25.0205C101.469 25.0205 101.436 24.9873 101.419 24.9375C101.402 24.8877 101.386 24.8545 101.386 24.8213C101.386 24.7881 101.386 24.7549 101.402 24.7217C101.419 24.6553 101.469 24.6221 101.552 24.6221V25.0205ZM103.926 17.1016C103.992 17.2842 104.025 17.4502 104.025 17.6328C104.025 17.915 103.959 18.1973 103.81 18.4961C103.577 18.9941 103.262 19.459 102.88 19.9072C102.498 20.3555 102.149 20.7207 101.834 20.9863C101.17 21.5508 100.39 21.833 99.5098 21.833H99.46C98.5469 21.833 97.75 21.5342 97.0527 20.9531C96.2393 20.2061 95.708 19.2764 95.459 18.1973C95.21 17.1182 95.0938 16.1055 95.0938 15.126C95.0938 14.8105 95.1104 14.5117 95.127 14.1963C95.21 12.9014 95.3594 11.7725 95.6084 10.793C95.8242 9.87988 96.2559 8.9834 96.9033 8.10352C97.5342 7.22363 98.1484 6.69238 98.7295 6.47656C99.3105 6.27734 99.7256 6.17773 100.008 6.17773C100.655 6.17773 101.336 6.44336 102.017 6.97461C102.747 7.60547 103.212 8.33594 103.395 9.16602C103.577 9.99609 103.677 10.8594 103.677 11.7725C103.677 11.7891 103.677 11.8223 103.693 11.8555C103.71 12.2207 103.727 12.5527 103.76 12.8682C103.81 13.25 103.826 13.6484 103.826 14.0469C103.826 14.1963 103.826 14.3623 103.81 14.5117C103.793 14.7441 103.776 14.96 103.743 15.1758C103.727 15.4082 103.71 15.6572 103.71 15.873V16.1055C103.71 16.4209 103.776 16.7529 103.926 17.1016ZM107.844 12.8682C107.346 12.7354 106.997 12.5859 106.781 12.4199C106.582 12.2539 106.466 12.0049 106.466 11.7061C106.466 11.6396 106.482 11.5732 106.482 11.5068H106.582C106.931 11.5068 107.18 11.6064 107.346 11.8223C107.528 12.0381 107.694 12.3867 107.844 12.8682ZM105.52 7.52246C105.453 7.52246 105.403 7.48926 105.387 7.43945C105.37 7.38965 105.37 7.35645 105.37 7.32324C105.37 7.29004 105.37 7.25684 105.387 7.22363C105.403 7.15723 105.453 7.12402 105.52 7.12402V7.52246ZM105.984 21.1025C105.935 20.9697 105.901 20.8535 105.901 20.7539C105.901 20.6709 105.918 20.6045 105.951 20.5381C106.034 20.4053 106.134 20.2725 106.267 20.1562C106.449 20.0068 106.615 19.791 106.765 19.4922C106.781 19.6582 106.798 19.8242 106.798 19.957C106.798 20.2559 106.748 20.4717 106.632 20.6211C106.466 20.8369 106.25 21.0029 105.984 21.1025ZM107.661 17.0518C107.611 17.0352 107.545 17.0186 107.445 16.9688C107.312 16.9189 107.163 16.8525 107.014 16.7861C106.864 16.7197 106.715 16.6533 106.599 16.5869C106.482 16.5205 106.416 16.4707 106.399 16.4375V16.3545C106.399 16.1885 106.449 16.0557 106.565 15.9727C106.632 15.9062 106.731 15.8896 106.814 15.8896C106.881 15.8896 106.947 15.8896 107.03 15.9229C107.113 15.9727 107.213 16.0557 107.312 16.1719C107.412 16.3047 107.495 16.4375 107.578 16.5869C107.645 16.7363 107.678 16.8525 107.694 16.9023C107.711 16.9688 107.728 17.002 107.728 17.0186C107.728 17.0518 107.711 17.0684 107.694 17.0684C107.694 17.0684 107.678 17.0518 107.661 17.0518ZM107.744 15.0928V15.043C107.744 14.8936 107.794 14.7939 107.877 14.7275C107.927 14.6943 107.993 14.6777 108.043 14.6777C108.093 14.6777 108.143 14.6943 108.192 14.7109C108.309 14.7441 108.375 14.8105 108.408 14.9268C108.292 14.96 108.192 14.9932 108.076 15.0098C107.96 15.0264 107.86 15.0596 107.744 15.0928ZM100.954 11.374C100.605 11.2578 100.224 11.1914 99.8086 11.1914C99.4434 11.1914 99.0449 11.2412 98.6133 11.3408C97.7168 11.5234 97.0361 11.9053 96.5713 12.4697C96.3389 12.835 96.2227 13.2334 96.2227 13.6484C96.2227 14.0801 96.3389 14.5283 96.5713 15.0098C96.7871 15.5244 97.0527 15.8564 97.3682 16.0391C97.667 16.2217 98.082 16.3047 98.6133 16.3213C98.7295 16.3213 98.8457 16.3213 98.9619 16.3379C99.1777 16.3545 99.3936 16.3545 99.6094 16.3545C99.9746 16.3545 100.356 16.3379 100.738 16.3047C101.353 16.2549 101.867 16.0557 102.315 15.707C102.647 15.4248 102.83 15.1592 102.88 14.9102C102.913 14.6777 102.93 14.4785 102.93 14.3125C102.93 14.0801 102.913 13.8311 102.863 13.5654C102.78 12.918 102.614 12.4365 102.332 12.1377C102.05 11.8389 101.585 11.5898 100.954 11.374ZM132.314 5.46387C132.298 4.50098 132.099 3.62109 131.733 2.80762C131.368 1.99414 130.721 1.49609 129.774 1.28027C129.642 1.26367 129.509 1.24707 129.376 1.24707C128.928 1.24707 128.463 1.36328 127.981 1.5957C127.351 1.91113 126.869 2.30957 126.537 2.80762C126.338 3.13965 126.205 3.50488 126.139 3.91992C126.072 4.33496 126.022 4.7334 125.989 5.11523C125.989 5.19824 125.989 5.28125 125.973 5.36426C125.923 5.8291 125.856 6.29395 125.74 6.74219C125.624 7.27344 125.541 7.80469 125.508 8.31934C125.508 8.91699 125.591 9.49805 125.773 10.0625C125.89 10.4941 125.973 10.9424 126.022 11.3906C126.039 11.6064 126.039 11.8223 126.039 12.0547C126.039 12.4199 126.022 12.7686 125.989 13.1338C125.973 13.499 125.956 13.8809 125.956 14.2627V14.6445C124.777 12.4863 123.549 10.4609 122.254 8.56836C121.457 7.38965 120.66 6.12793 119.847 4.81641C119.166 3.6875 118.319 2.69141 117.323 1.82812C117.207 1.72852 117.107 1.64551 117.024 1.5791C116.892 1.46289 116.792 1.36328 116.709 1.31348C116.626 1.26367 116.526 1.24707 116.443 1.23047C116.36 1.23047 116.261 1.21387 116.178 1.21387C116.095 1.21387 115.995 1.23047 115.879 1.23047C115.381 1.24707 115.032 1.36328 114.833 1.5459C114.617 1.74512 114.435 2.04395 114.252 2.42578C113.721 3.57129 113.422 4.66699 113.339 5.74609C113.256 6.80859 113.223 7.73828 113.223 8.55176C113.223 9.0498 113.239 9.54785 113.256 10.0459C113.272 10.5605 113.272 11.0752 113.289 11.5732C113.272 11.8721 113.256 12.3701 113.223 13.084C113.156 14.2129 113.106 15.2588 113.09 16.2217C113.073 17.2012 113.073 17.8154 113.073 18.0977C113.073 19.4756 113.14 20.8203 113.272 22.1484C113.422 23.7588 113.737 24.9873 114.202 25.8506C114.65 26.7139 115.248 27.1455 115.979 27.1455C116.178 27.1455 116.377 27.1123 116.593 27.0625C117.29 26.8301 117.821 26.3486 118.17 25.6182C118.519 24.9043 118.718 24.2236 118.784 23.5928C118.851 22.9785 118.884 22.4805 118.884 22.1484C118.884 21.75 118.851 21.4014 118.801 21.0859C118.618 19.8242 118.502 18.6289 118.469 17.4834C118.452 16.3545 118.436 15.292 118.436 14.3125V13.333C118.452 12.8018 118.452 12.2705 118.452 11.7559C118.9 12.1709 119.299 12.6689 119.647 13.2168C119.996 13.7646 120.328 14.3457 120.644 14.9268C120.926 15.4746 121.225 16.0059 121.54 16.4873C122.304 17.666 123.084 18.8115 123.864 19.957C124.296 20.5713 124.711 21.1855 125.126 21.7998C125.591 22.5801 125.923 23.3604 126.105 24.1738C126.288 24.8877 126.537 25.5186 126.869 26.083C127.317 26.6973 127.766 27.0293 128.181 27.0459C128.596 27.0625 128.828 27.0625 128.878 27.0625C129.608 27.0625 130.239 26.8301 130.804 26.3818C131.385 25.8174 131.717 25.1367 131.816 24.3398C131.933 23.543 131.982 22.8291 131.982 22.2148C131.982 22.0322 131.966 21.8662 131.966 21.7002V20.7373C131.949 19.874 131.949 19.0107 131.949 18.1475C131.949 17.2842 131.949 16.4375 131.966 15.5742C131.966 14.9268 131.933 14.2627 131.883 13.582C131.833 13.0674 131.816 12.5527 131.816 12.0547C131.816 11.5566 131.833 11.0752 131.883 10.5938C131.916 10.3281 131.949 10.0791 131.982 9.83008C132.198 8.55176 132.314 7.22363 132.314 5.8457V5.46387ZM115.763 19.0605V19.0107C115.763 18.8613 115.812 18.7617 115.896 18.7119C115.962 18.6787 116.028 18.6621 116.095 18.6621C116.128 18.6621 116.178 18.6621 116.211 18.6787C116.327 18.7285 116.394 18.7949 116.41 18.9111C116.194 18.9609 115.979 19.0107 115.763 19.0605ZM116.493 11.8887C116.493 11.54 116.526 11.3076 116.609 11.2246C116.692 11.1416 116.775 11.1084 116.842 11.1084C116.875 11.1084 116.908 11.1084 116.941 11.125C117.058 11.1748 117.124 11.2412 117.157 11.3242C117.174 11.4072 117.19 11.4736 117.19 11.5068C117.19 11.5898 117.157 11.6729 117.091 11.7393C117.008 11.8389 116.809 11.8887 116.493 11.8887ZM117.688 9.54785C117.738 9.61426 117.771 9.69727 117.771 9.76367C117.771 9.84668 117.722 9.94629 117.622 10.0293C117.439 10.1787 117.207 10.2451 116.908 10.2451H116.842C116.991 10.0127 117.124 9.84668 117.224 9.73047C117.323 9.63086 117.423 9.54785 117.506 9.49805C117.622 9.41504 117.738 9.29883 117.888 9.14941C117.971 9.19922 118.021 9.26562 118.021 9.31543C118.021 9.39844 117.904 9.48145 117.688 9.54785ZM121.042 11.0752C120.594 11.3574 120.129 11.623 119.664 11.8721C119.664 11.291 119.714 10.959 119.83 10.876C119.93 10.793 120.112 10.7432 120.361 10.7432C120.444 10.7432 120.544 10.7432 120.644 10.7598C120.793 10.7764 120.976 10.7764 121.175 10.7764C121.158 10.8262 121.125 10.876 121.108 10.9258C121.092 10.9756 121.059 11.0254 121.042 11.0752ZM124.279 15.0762C124.196 15.0762 124.163 15.043 124.146 14.9932C124.13 14.9434 124.113 14.9102 124.113 14.877C124.113 14.8438 124.113 14.8105 124.13 14.7773C124.146 14.7109 124.196 14.6777 124.279 14.6777V15.0762ZM124.877 16.5869C124.794 16.4043 124.744 16.2549 124.744 16.1553C124.744 15.9893 124.844 15.9062 125.026 15.9062H125.076C125.226 16.1387 125.292 16.3047 125.292 16.4375C125.292 16.5537 125.209 16.6035 125.06 16.6035C125.01 16.6035 124.943 16.6035 124.877 16.5869ZM129.608 7.58887C129.559 7.8877 129.492 8.20312 129.442 8.50195L129.21 8.33594C128.878 8.08691 128.529 7.83789 128.181 7.58887H129.608ZM129.044 23.0283C128.978 23.0283 128.928 22.9951 128.911 22.9453C128.895 22.8955 128.895 22.8623 128.895 22.8291C128.895 22.7959 128.895 22.7627 128.911 22.7295C128.928 22.6631 128.978 22.6299 129.044 22.6299V23.0283ZM129.31 12.6523L129.177 11.9883C129.343 11.9883 129.459 12.0215 129.509 12.1045C129.559 12.1875 129.575 12.2705 129.575 12.3369C129.575 12.3867 129.575 12.4199 129.559 12.4531C129.525 12.5693 129.442 12.6357 129.31 12.6523ZM129.476 13.8809C129.575 14.1133 129.642 14.3125 129.642 14.4453C129.642 14.6113 129.559 14.6943 129.393 14.6943C129.359 14.6943 129.31 14.6777 129.276 14.6777C129.177 14.4453 129.11 14.2461 129.11 14.1133C129.11 13.9473 129.193 13.8643 129.359 13.8643C129.393 13.8643 129.442 13.8809 129.476 13.8809ZM129.708 13.4824C129.658 13.3662 129.642 13.2666 129.642 13.2002C129.642 13.1172 129.675 13.0674 129.774 13.0674C129.791 13.0674 129.808 13.084 129.841 13.084C129.891 13.2002 129.924 13.2832 129.924 13.3496C129.924 13.4492 129.874 13.4824 129.791 13.4824H129.708ZM129.011 11.0586C129.326 10.9424 129.642 10.8096 129.957 10.6768C129.974 10.7432 129.974 10.8096 129.974 10.8594C129.974 10.9756 129.94 11.0586 129.857 11.0752C129.791 11.1084 129.725 11.1084 129.625 11.1084C129.559 11.1084 129.476 11.1084 129.393 11.0918C129.276 11.0752 129.144 11.0586 129.011 11.0586ZM130.239 22.6299C130.173 22.6299 130.123 22.5967 130.106 22.5469C130.09 22.4971 130.073 22.4639 130.073 22.4307C130.073 22.3975 130.073 22.3643 130.09 22.3311C130.123 22.2646 130.173 22.2314 130.239 22.2314V22.6299ZM130.339 9.83008C130.189 9.89648 130.057 9.94629 129.94 9.94629C129.758 9.94629 129.625 9.84668 129.542 9.66406L130.339 9.39844V9.83008ZM158.362 8.76758C158.362 8.75098 158.346 8.73438 158.312 8.70117V8.71777C158.312 8.73438 158.329 8.75098 158.362 8.76758ZM158.578 9.06641C158.512 8.9834 158.462 8.91699 158.412 8.85059C158.362 8.80078 158.329 8.75098 158.296 8.73438C158.263 8.71777 158.229 8.68457 158.18 8.63477C158.13 8.58496 158.063 8.53516 157.98 8.46875L158.047 8.45215C158.13 8.45215 158.246 8.53516 158.379 8.70117C158.528 8.85059 158.595 8.9668 158.595 9.0332L158.578 9.06641ZM159.807 23.0283C159.69 23.0283 159.641 22.9619 159.641 22.8291C159.641 22.6963 159.69 22.6299 159.807 22.6299V23.0283ZM153.73 22.082C153.1 22.082 152.502 22.0156 151.938 21.8994C151.688 21.8662 151.423 21.8496 151.107 21.8496L150.726 21.8662C150.543 21.8662 150.36 21.8496 150.194 21.8164C149.945 21.7666 149.763 21.6338 149.646 21.4014C149.547 21.1191 149.497 20.6045 149.497 19.8408C149.497 18.9277 149.547 18.3135 149.646 17.998C149.862 17.5664 150.311 17.2344 150.991 17.0186C151.672 16.8027 152.27 16.6699 152.768 16.6367C153.266 16.6201 153.614 16.6035 153.83 16.6035C154.278 16.6035 154.66 16.6367 154.942 16.7031C155.357 16.8027 155.839 16.9854 156.42 17.2676C157.333 17.7158 157.814 18.2139 157.881 18.7617C157.914 18.9111 157.964 19.0605 158.047 19.1768C158.113 19.3096 158.263 19.4092 158.479 19.4922C157.781 20.1729 157.084 20.8701 156.403 21.5674C155.689 21.8662 155.108 22.0322 154.644 22.0488C154.179 22.0654 153.88 22.082 153.73 22.082ZM151.755 24.5723C151.605 24.5723 151.539 24.4561 151.539 24.2402C151.539 24.1572 151.556 24.041 151.572 23.9248C151.672 23.8916 151.755 23.875 151.821 23.875C151.954 23.875 152.021 23.9414 152.021 24.0908C152.021 24.207 151.987 24.3564 151.921 24.5391C151.854 24.5557 151.805 24.5723 151.755 24.5723ZM147.986 18.9443L147.638 18.8115C147.688 18.7285 147.737 18.6953 147.787 18.6953C147.87 18.6953 147.937 18.7783 147.986 18.9443ZM147.521 20.7539L148.069 19.1934C148.252 19.4092 148.335 19.6084 148.335 19.791C148.335 20.123 148.069 20.4385 147.521 20.7539ZM148.186 23.8916C148.136 23.8418 148.069 23.8086 148.003 23.7754L147.123 23.2773C147.322 23.1279 147.488 23.0449 147.604 23.0449C147.787 23.0449 147.92 23.1445 148.02 23.3604C148.086 23.5264 148.136 23.709 148.186 23.8916ZM146.658 19.1436C146.542 19.1436 146.476 19.0605 146.476 18.9111L146.492 18.7285C146.675 18.6455 146.824 18.5957 146.94 18.5957C147.09 18.5957 147.173 18.6953 147.173 18.9111C146.94 19.0605 146.774 19.1436 146.658 19.1436ZM147.438 15.1426C147.272 15.1426 147.189 15.0596 147.189 14.8936L147.206 14.7773C147.455 14.6611 147.638 14.6113 147.771 14.6113C147.937 14.6113 148.02 14.6943 148.02 14.8604L148.003 14.9766C147.754 15.0928 147.571 15.1426 147.438 15.1426ZM147.571 7.10742C147.389 7.10742 147.289 7.02441 147.239 6.8584L147.903 6.70898C147.903 6.97461 147.787 7.10742 147.571 7.10742ZM148.816 5.18164C148.733 5.18164 148.617 5.16504 148.501 5.14844C148.468 5.04883 148.451 4.96582 148.451 4.89941C148.451 4.75 148.534 4.68359 148.684 4.68359C148.8 4.68359 148.949 4.7168 149.132 4.7998C149.148 4.84961 149.165 4.89941 149.165 4.94922C149.165 5.09863 149.049 5.18164 148.816 5.18164ZM153.183 15.3916C152.917 15.375 152.784 15.2588 152.784 15.0264C152.784 14.8438 152.867 14.7275 153.05 14.7109L153.183 15.3916ZM154.411 14.5781H153.764L154.229 13.5654L154.411 14.5781ZM149.68 12.2539C149.663 11.623 149.58 10.9922 149.447 10.3613C149.281 9.63086 149.198 8.93359 149.198 8.26953C149.198 7.60547 149.397 6.95801 149.779 6.31055C150.095 6.32715 150.41 6.34375 150.726 6.34375C150.975 6.34375 151.207 6.32715 151.439 6.31055C151.672 6.29395 151.904 6.29395 152.137 6.29395C153.299 6.29395 154.046 6.45996 154.411 6.80859C154.561 6.95801 154.693 7.12402 154.793 7.30664C155.025 7.70508 155.341 8.00391 155.723 8.20312C155.49 8.48535 155.241 8.81738 154.976 9.21582C154.561 9.86328 154.195 10.3447 153.847 10.6602C153.498 10.9424 153.066 11.1582 152.552 11.3408C152.037 11.5234 151.539 11.6895 151.041 11.8223C150.526 11.9717 150.078 12.1045 149.68 12.2539ZM149.729 5.13184V4.7334C149.846 4.7334 149.896 4.7998 149.896 4.93262C149.896 5.06543 149.846 5.13184 149.729 5.13184ZM153.714 4.33496V3.93652C153.83 3.93652 153.88 4.00293 153.88 4.13574C153.88 4.26855 153.83 4.33496 153.714 4.33496ZM155.59 13.333C155.54 13.2002 155.523 13.084 155.523 12.9844C155.523 12.7686 155.623 12.6689 155.839 12.6689C155.955 12.6689 156.104 12.7021 156.271 12.752C156.32 12.8018 156.337 12.8516 156.337 12.9014C156.337 13.0342 156.171 13.1504 155.839 13.2334L155.59 13.333ZM157.715 13.0342C157.565 13.0342 157.499 12.9678 157.499 12.8184C157.499 12.7021 157.532 12.5527 157.615 12.3701C157.682 12.3535 157.731 12.3369 157.781 12.3369C157.931 12.3369 157.997 12.4531 157.997 12.6689C157.997 12.752 157.98 12.8682 157.964 12.9844C157.864 13.0176 157.781 13.0342 157.715 13.0342ZM157.648 7.55566V6.9082L158.661 7.37305C158.329 7.43945 157.997 7.50586 157.648 7.55566ZM149.995 15.2422L149.613 15.1094C149.215 14.9766 148.982 14.8438 148.933 14.6943L149.281 14.6777C149.464 14.6777 149.68 14.6777 149.896 14.6777C150.111 14.6943 150.311 14.7109 150.477 14.7441C150.643 14.7773 150.742 14.8438 150.759 14.9434L150.526 14.9932C150.344 15.0264 150.161 15.1094 149.995 15.2422ZM148.916 14.6943C148.866 14.4951 148.833 14.2295 148.833 13.9307C149.099 13.9307 149.231 14.1133 149.231 14.4619C149.198 14.5781 149.099 14.6611 148.916 14.6943ZM152.286 27.4609C152.585 27.4609 152.983 27.4277 153.481 27.3779C155.689 27.1289 157.333 26.8135 158.396 26.3984C158.993 26.1826 159.441 26.0664 159.74 26.0166C160.288 25.9502 160.554 25.8008 160.554 25.6016C160.554 25.4854 160.471 25.3027 160.288 25.0703C161.085 24.9873 161.732 24.6719 162.23 24.1074C162.729 23.543 163.077 22.9121 163.26 22.1982C163.442 21.4844 163.525 20.8369 163.525 20.2227C163.525 18.7285 163.094 17.417 162.247 16.2715C161.55 15.3584 160.736 14.4785 159.823 13.665C159.508 13.3662 159.176 13.0508 158.86 12.7354C160.172 10.9756 160.819 9.29883 160.819 7.70508C160.819 6.75879 160.554 5.8291 160.039 4.88281C159.226 3.60449 158.213 2.6748 157.001 2.09375C155.772 1.5127 154.444 1.13086 153 0.948242C152.004 0.782227 151.008 0.699219 150.012 0.699219L149.115 0.71582C147.837 0.782227 146.675 1.26367 145.629 2.17676C145.081 2.70801 144.732 3.25586 144.6 3.80371C144.45 4.36816 144.384 5.03223 144.367 5.7959C144.317 6.60938 144.251 7.37305 144.168 8.12012C144.035 9.0332 143.969 9.94629 143.952 10.8594L143.969 11.9883L143.985 12.8018C143.985 13.5156 143.919 14.3623 143.786 15.3418C143.604 16.4873 143.521 17.3506 143.521 17.9316C143.521 18.8115 143.637 19.4922 143.869 19.9902C144.002 20.3057 144.068 20.6709 144.068 21.0693L144.002 22.5303C144.002 23.2109 144.135 24.0244 144.4 24.9707C144.6 25.7178 144.915 26.249 145.363 26.5645C145.313 26.5312 145.297 26.5146 145.297 26.498C145.297 26.4648 145.396 26.4482 145.596 26.4482C145.778 26.4648 145.961 26.4814 146.127 26.498C146.293 26.5312 146.442 26.5479 146.575 26.5645C146.691 26.5811 146.758 26.5977 146.774 26.6143L146.907 26.6641C147.023 26.6641 147.239 26.7139 147.588 26.7969C147.92 26.8965 148.269 26.9795 148.634 27.0293L149.563 27.1787C150.692 27.3613 151.605 27.4609 152.286 27.4609ZM184.443 6.11133C184.128 5.7627 183.912 5.38086 183.812 4.94922C183.713 4.53418 183.646 4.10254 183.613 3.6543C183.597 3.04004 183.48 2.49219 183.281 2.02734C183.082 1.5625 182.617 1.28027 181.87 1.16406C181.704 1.14746 181.538 1.13086 181.372 1.13086C180.708 1.13086 180.16 1.29688 179.712 1.62891C179.147 2.04395 178.732 2.5918 178.467 3.28906C178.201 4.00293 178.068 4.75 178.068 5.54688C178.085 6.62598 178.185 7.70508 178.334 8.80078C178.483 9.91309 178.666 10.9922 178.865 12.0547L178.898 12.2207C179.081 13.1836 179.23 14.1465 179.313 15.126V15.2754C179.313 15.624 179.28 15.9561 179.214 16.2715C179.164 16.5703 179.147 16.8027 179.131 16.9521C179.131 17.1016 179.131 17.2012 179.131 17.2178C179.131 17.4834 179.197 17.7656 179.313 18.0645C179.081 18.1475 178.915 18.2139 178.815 18.2803C178.699 18.3633 178.633 18.4297 178.616 18.5127C178.6 18.5957 178.583 18.6787 178.583 18.7783V18.8613C178.583 19.0439 178.533 19.2764 178.434 19.5586C178.367 19.7246 178.201 19.9736 177.919 20.2891C177.637 20.6045 177.338 20.9199 177.022 21.2188C176.707 21.5176 176.458 21.7002 176.292 21.7832C175.927 21.916 175.562 21.999 175.18 21.999C174.682 21.999 174.184 21.8662 173.686 21.6006C172.822 21.1523 172.142 20.5879 171.627 19.9072C171.112 19.1768 170.813 18.3467 170.697 17.417C170.598 16.4873 170.548 15.5908 170.548 14.7275V13.7812C170.564 12.4033 170.647 11.0254 170.797 9.68066C170.896 8.73438 170.979 7.77148 171.029 6.79199V6.47656C171.062 5.99512 171.079 5.48047 171.079 4.93262C171.062 4.38477 171.013 3.90332 170.913 3.47168C170.631 2.39258 170.05 1.66211 169.137 1.31348C168.821 1.19727 168.522 1.13086 168.24 1.13086C167.759 1.13086 167.344 1.29688 166.979 1.64551C166.414 2.19336 165.982 2.87402 165.7 3.6875C165.435 4.46777 165.302 5.28125 165.302 6.14453V6.24414C165.318 7.14062 165.385 8.00391 165.501 8.85059C165.634 10.3115 165.7 11.7559 165.7 13.2002C165.7 13.5986 165.7 13.9805 165.684 14.3623V16.0225C165.684 17.0518 165.733 18.0977 165.866 19.127C166.016 20.3389 166.331 21.4512 166.829 22.4971C167.311 23.543 168.091 24.4561 169.137 25.2031C170.681 26.2988 172.407 26.8965 174.3 27.0127H174.648C175.528 27.0127 176.408 26.9131 177.271 26.6807C177.388 26.6475 177.487 26.6143 177.587 26.5811C177.886 26.498 178.102 26.4316 178.251 26.415C178.384 26.3818 178.5 26.3652 178.6 26.3652C178.699 26.3652 178.799 26.3818 178.898 26.3984C179.098 26.4316 179.363 26.498 179.712 26.6143C180.243 26.7637 180.708 26.8301 181.14 26.8301C181.654 26.8301 182.103 26.7305 182.468 26.498C183.115 26.083 183.597 25.4521 183.879 24.6055C184.161 23.7588 184.311 22.9453 184.344 22.165C184.394 21.3848 184.41 20.7539 184.41 20.2559C184.41 19.8408 184.394 19.459 184.377 19.0938C184.327 18.3467 184.261 17.583 184.178 16.8359C184.062 15.9561 183.995 15.0762 183.995 14.1797C183.995 13.6484 184.012 13.1006 184.062 12.5527C184.311 10.5107 184.443 8.35254 184.443 6.11133ZM168.788 9.48145C168.722 9.48145 168.672 9.44824 168.655 9.39844C168.639 9.34863 168.622 9.31543 168.622 9.28223C168.622 9.24902 168.622 9.21582 168.639 9.18262C168.672 9.11621 168.722 9.08301 168.788 9.08301V9.48145ZM168.987 20.1562C168.904 19.9736 168.871 19.8242 168.871 19.7246C168.871 19.542 168.971 19.459 169.17 19.459H169.187C169.336 19.6748 169.402 19.8408 169.402 19.957C169.402 20.0898 169.319 20.1562 169.12 20.1562H168.987ZM170.913 22.0654C170.797 22.1152 170.714 22.1318 170.647 22.1318C170.548 22.1318 170.515 22.0986 170.515 21.999V21.9326C170.631 21.8828 170.73 21.8496 170.797 21.8496C170.88 21.8496 170.93 21.8994 170.93 21.9824L170.913 22.0654ZM179.164 24.5889C179.048 24.5889 178.981 24.5391 178.948 24.4395C178.915 24.3398 178.915 24.2568 178.915 24.1904C178.915 24.124 178.915 24.0576 178.932 23.9912C178.981 23.8584 179.048 23.792 179.164 23.792V24.5889ZM181.14 8.86719C181.256 8.78418 181.355 8.71777 181.472 8.65137C181.638 8.55176 181.804 8.45215 181.986 8.33594V8.38574C182.02 8.51855 182.036 8.63477 182.036 8.75098V8.83398C182.02 8.9502 181.986 9.0166 181.92 9.0332C181.854 9.0498 181.82 9.0498 181.804 9.0498C181.671 9.0498 181.438 8.9834 181.14 8.86719ZM182.318 11.2246C182.235 11.291 182.152 11.3574 182.069 11.4238C181.953 11.5068 181.854 11.5898 181.771 11.6562C181.754 11.5566 181.754 11.4736 181.754 11.4072C181.754 11.291 181.771 11.2246 181.804 11.1914C181.82 11.1748 181.87 11.1582 181.92 11.1582C182.02 11.1582 182.152 11.1914 182.318 11.2246ZM181.189 19.8906C181.272 20.0732 181.306 20.2227 181.306 20.3223C181.306 20.4883 181.223 20.5713 181.04 20.5713H180.99C180.841 20.3389 180.774 20.1729 180.774 20.0566C180.774 19.9404 180.841 19.874 181.007 19.874C181.057 19.874 181.123 19.874 181.189 19.8906ZM181.621 7.38965C181.621 7.65527 181.571 7.80469 181.455 7.85449C181.355 7.9043 181.272 7.9375 181.239 7.9375C181.106 7.9375 180.957 7.83789 180.808 7.63867C181.09 7.55566 181.355 7.47266 181.621 7.38965ZM180.193 21.7998C180.276 21.7998 180.326 21.8164 180.343 21.8662C180.359 21.916 180.359 21.9658 180.359 21.999C180.359 22.0322 180.359 22.0654 180.343 22.0986C180.326 22.165 180.276 22.1982 180.193 22.1982V21.7998ZM181.787 18.2305C181.737 18.1143 181.721 18.0146 181.721 17.9482C181.721 17.8652 181.754 17.8154 181.854 17.8154C181.87 17.8154 181.887 17.832 181.92 17.832C181.97 17.9482 182.003 18.0312 182.003 18.0977C182.003 18.1973 181.953 18.2305 181.87 18.2305H181.787ZM181.721 12.9844C181.704 12.9346 181.688 12.8682 181.688 12.835C181.688 12.6855 181.804 12.6025 182.036 12.6025C182.119 12.6025 182.235 12.6191 182.352 12.6357C182.385 12.7354 182.401 12.8184 182.401 12.8848C182.401 13.0176 182.335 13.1006 182.169 13.1006C182.069 13.1006 181.92 13.0508 181.721 12.9844ZM182.783 9.81348C182.717 9.83008 182.667 9.84668 182.634 9.84668C182.468 9.84668 182.401 9.73047 182.401 9.49805C182.401 9.41504 182.401 9.29883 182.435 9.16602C182.518 9.13281 182.584 9.13281 182.65 9.13281C182.8 9.13281 182.883 9.21582 182.883 9.38184C182.883 9.48145 182.85 9.63086 182.783 9.81348ZM205.345 22.1484C204.332 21.9326 203.502 21.5508 202.838 20.9697C202.157 20.3887 201.593 19.6582 201.111 18.7783C200.646 17.9814 200.414 17.2676 200.414 16.6533C200.414 16.5205 200.431 16.3877 200.447 16.2715C200.58 15.5908 201.128 14.9434 202.074 14.3291C202.273 14.1963 202.473 14.0635 202.688 13.9307C203.27 13.582 203.834 13.2002 204.382 12.7852C204.93 12.3701 205.378 11.8721 205.743 11.291C206.258 10.4111 206.507 9.54785 206.507 8.70117V8.60156C206.49 7.72168 206.341 6.8252 206.059 5.87891C205.976 5.54688 205.909 5.26465 205.876 5.03223C205.843 4.7666 205.793 4.51758 205.71 4.28516C205.627 4.06934 205.461 3.82031 205.245 3.53809C204.681 2.90723 204.05 2.34277 203.353 1.86133C202.688 1.44629 201.975 1.14746 201.228 0.981445C200.48 0.832031 199.7 0.71582 198.92 0.666016C198.671 0.632812 198.405 0.599609 198.14 0.583008C197.227 0.466797 196.496 0.383789 195.948 0.367188C195.384 0.350586 195.019 0.333984 194.836 0.333984C194.139 0.333984 193.508 0.400391 192.943 0.549805C192.744 0.599609 192.545 0.649414 192.346 0.699219C191.466 0.898438 190.669 1.16406 189.938 1.5127C189.191 1.86133 188.627 2.45898 188.245 3.30566C187.764 4.45117 187.498 5.49707 187.432 6.45996C187.382 7.40625 187.349 8.18652 187.349 8.75098C187.349 9.53125 187.382 10.3281 187.448 11.1084C187.564 12.4697 187.714 13.748 187.896 14.9434C187.913 14.9932 187.913 15.043 187.913 15.0928C187.93 15.126 187.93 15.1592 187.93 15.209C188.013 15.7402 188.079 16.3047 188.146 16.9023C188.212 17.5 188.245 18.0312 188.262 18.5127C188.029 18.6621 187.913 18.8447 187.913 19.0605C187.913 19.127 187.93 19.21 187.946 19.2764C188.046 19.5254 188.162 19.7744 188.295 20.0234V20.123C188.295 20.4883 188.229 20.8535 188.112 21.2021C187.996 21.5508 187.946 21.9326 187.946 22.3145V22.4141C187.979 22.9785 188.096 23.6094 188.312 24.3232C188.511 25.0371 188.826 25.6016 189.258 26.0166C189.739 26.4316 190.271 26.6309 190.885 26.6309H190.935C191.549 26.6143 192.08 26.2988 192.528 25.7012C192.844 25.2197 193.026 24.7383 193.076 24.29C193.126 23.8252 193.159 23.4102 193.159 23.0117C193.159 22.8457 193.143 22.6963 193.143 22.5303C193.126 22.2812 193.126 22.0322 193.126 21.7832C193.109 21.4844 193.093 21.1523 193.076 20.8037C193.043 20.4717 193.026 20.1562 193.026 19.8408C193.026 19.4258 193.06 19.0273 193.126 18.6455C193.06 18.4629 193.026 18.3135 193.026 18.1807C193.026 17.7822 193.292 17.5664 193.84 17.5166C194.338 17.3008 194.836 17.0684 195.351 16.8525C195.533 17.4336 195.699 18.0146 195.849 18.5957C196.031 19.3096 196.23 20.0234 196.463 20.7041C196.679 21.4014 196.994 22.082 197.393 22.7627C198.588 24.7383 200.281 26.083 202.473 26.8301C203.27 27.1289 204.017 27.2783 204.714 27.2783C204.83 27.2783 204.93 27.2617 205.046 27.2617C205.843 27.2119 206.573 26.8135 207.237 26.0996C207.669 25.668 207.918 25.3359 208.001 25.1035C208.084 24.8711 208.117 24.7051 208.117 24.6055C208.117 24.3066 207.984 23.9746 207.702 23.6094C207.104 22.8291 206.324 22.3311 205.345 22.1484ZM203.419 5.72949C203.369 5.8125 203.319 5.8623 203.286 5.8623C203.22 5.8623 203.153 5.7793 203.104 5.62988C203.22 5.66309 203.319 5.69629 203.419 5.72949ZM202.888 5.39746C202.522 5.31445 202.141 5.13184 201.742 4.84961C201.941 4.7832 202.107 4.75 202.24 4.75C202.373 4.75 202.473 4.7666 202.556 4.83301C202.722 4.96582 202.838 5.14844 202.888 5.39746ZM201.36 3.78711C201.277 3.88672 201.178 3.98633 201.078 4.08594C200.846 4.33496 200.613 4.56738 200.381 4.7998C200.348 4.61719 200.331 4.46777 200.331 4.35156C200.331 4.21875 200.348 4.11914 200.397 4.06934C200.48 3.96973 200.68 3.90332 200.962 3.87012C201.078 3.85352 201.211 3.82031 201.36 3.78711ZM199.318 3.62109C199.368 3.87012 199.418 4.13574 199.468 4.40137C199.501 4.46777 199.501 4.53418 199.501 4.58398C199.501 4.7168 199.418 4.7666 199.219 4.7666C199.119 4.7666 199.02 4.7666 198.887 4.7334L198.621 4.46777C198.854 4.18555 199.086 3.90332 199.318 3.62109ZM193.923 4.43457C194.039 4.38477 194.139 4.35156 194.205 4.35156C194.288 4.35156 194.338 4.40137 194.338 4.48438L194.321 4.56738C194.205 4.61719 194.122 4.63379 194.056 4.63379C193.956 4.63379 193.923 4.60059 193.923 4.50098V4.43457ZM193.475 13.4492L193.508 13.6484L193.541 13.8145C193.375 13.8809 193.242 13.9307 193.109 13.9307C192.91 13.9307 192.761 13.8145 192.678 13.6152L193.475 13.4492ZM193.558 13.8643C193.674 13.9473 193.773 14.0137 193.873 14.0801C193.823 14.1299 193.79 14.1465 193.773 14.1631C193.74 14.1631 193.724 14.1631 193.707 14.1631H193.674C193.641 14.1465 193.624 14.1133 193.607 14.0801C193.591 14.0635 193.591 14.0303 193.574 13.9971C193.558 13.9639 193.558 13.9307 193.558 13.9141C193.558 13.8975 193.558 13.8809 193.558 13.8643ZM192.379 15.0762C192.362 15.0762 192.362 15.0762 192.346 15.0596H192.329H192.346L192.379 15.0762ZM191.997 13.3828C191.914 13.2002 191.864 13.0508 191.864 12.9512C191.864 12.7852 191.964 12.7021 192.163 12.7021H192.18C192.329 12.918 192.412 13.1006 192.412 13.2002C192.412 13.333 192.312 13.3994 192.146 13.3994C192.097 13.3994 192.047 13.3828 191.997 13.3828ZM193.109 14.9268C193.01 14.9434 192.91 14.9766 192.794 14.9932C192.694 15.0098 192.595 15.0264 192.495 15.043C192.545 14.9268 192.595 14.8271 192.678 14.7773C192.761 14.7109 192.827 14.6777 192.894 14.6777L192.96 14.6943C193.043 14.7109 193.093 14.7773 193.109 14.9268ZM192.296 5.06543C192.346 5.13184 192.379 5.14844 192.412 5.14844C192.479 5.14844 192.528 5.01562 192.562 4.7334C192.578 4.75 192.578 4.7666 192.578 4.7832C192.578 4.81641 192.578 4.84961 192.545 4.89941C192.512 4.96582 192.462 5.03223 192.396 5.11523C192.329 5.19824 192.263 5.26465 192.196 5.34766C192.146 5.39746 192.113 5.43066 192.097 5.46387C192.014 5.41406 191.964 5.34766 191.964 5.29785C191.964 5.21484 192.08 5.13184 192.296 5.06543ZM191.897 8.45215C191.648 8.88379 191.3 9.09961 190.852 9.09961C190.785 9.09961 190.719 9.08301 190.652 9.08301C190.752 8.9834 190.852 8.88379 190.935 8.76758C191.084 8.55176 191.2 8.41895 191.3 8.35254C191.416 8.30273 191.499 8.26953 191.549 8.26953C191.665 8.26953 191.781 8.33594 191.897 8.45215ZM191.399 10.2617C191.449 10.3779 191.482 10.4609 191.482 10.5273C191.482 10.627 191.433 10.6602 191.35 10.6602H191.267C191.217 10.5439 191.2 10.4443 191.2 10.3779C191.2 10.2949 191.233 10.2451 191.333 10.2451C191.35 10.2451 191.366 10.2617 191.399 10.2617ZM190.337 7.62207C190.453 7.57227 190.553 7.53906 190.619 7.53906C190.702 7.53906 190.752 7.58887 190.752 7.67188L190.735 7.75488C190.619 7.80469 190.536 7.82129 190.47 7.82129C190.37 7.82129 190.337 7.78809 190.337 7.68848V7.62207ZM191.549 11.125C191.499 11.4404 191.449 11.7393 191.399 12.0547C191.051 11.8057 190.719 11.5566 190.387 11.3076C190.287 11.2578 190.204 11.1914 190.121 11.125H191.549ZM190.603 12.6523C190.52 12.6523 190.486 12.6191 190.47 12.5693C190.453 12.5195 190.437 12.4863 190.437 12.4531C190.437 12.4199 190.437 12.3867 190.453 12.3535C190.47 12.2871 190.52 12.2539 190.603 12.2539V12.6523ZM191.964 18.1309C191.964 17.7656 192.014 17.5664 192.097 17.5166C192.196 17.4668 192.296 17.4502 192.412 17.4502C192.479 17.4502 192.562 17.4502 192.645 17.4668C192.794 17.4834 192.943 17.5 193.126 17.5C193.026 17.5498 192.927 17.5996 192.827 17.6494C192.545 17.8154 192.246 17.9814 191.964 18.1309ZM192.777 16.2383C192.678 16.0225 192.645 15.8564 192.645 15.7236C192.645 15.5078 192.761 15.3916 193.01 15.3916C193.093 15.3916 193.209 15.4082 193.325 15.4414C193.309 15.8232 193.126 16.0889 192.777 16.2383ZM193.491 15.4248H193.524L193.541 15.4414H193.524C193.508 15.4414 193.508 15.4414 193.491 15.4248ZM193.707 15.4414C193.724 15.0596 193.906 14.7939 194.255 14.6445C194.354 14.8604 194.388 15.0264 194.388 15.1592C194.388 15.375 194.271 15.4912 194.022 15.4912C193.939 15.4912 193.823 15.4746 193.707 15.4414ZM197.924 16.2715C197.874 16.2051 197.841 16.1885 197.808 16.1885C197.741 16.1885 197.691 16.3213 197.658 16.6035C197.642 16.5869 197.642 16.5537 197.642 16.5205C197.642 16.5039 197.642 16.4707 197.658 16.4375C197.708 16.3711 197.758 16.3047 197.824 16.2217C197.891 16.1387 197.957 16.0723 198.023 15.9893C198.073 15.9395 198.106 15.9062 198.123 15.873C198.206 15.9229 198.256 15.9893 198.256 16.0391C198.256 16.1221 198.14 16.2051 197.924 16.2715ZM198.322 17.2676C198.322 17.002 198.372 16.8193 198.488 16.7363C198.588 16.6533 198.671 16.6201 198.737 16.6201C198.854 16.6201 199.003 16.7031 199.152 16.8857C198.87 17.0186 198.604 17.1514 198.322 17.2676ZM193.707 11.9883C193.657 11.7061 193.574 11.3906 193.475 11.0088C193.226 10.2119 193.076 9.53125 192.993 8.9668C192.91 8.40234 192.877 8.02051 192.877 7.82129C192.877 7.20703 193.026 6.69238 193.325 6.27734C193.674 5.92871 194.039 5.74609 194.454 5.72949C194.853 5.72949 195.085 5.72949 195.135 5.72949C195.849 5.72949 196.596 5.7959 197.343 5.94531C198.156 6.09473 198.787 6.24414 199.269 6.37695C200.447 6.72559 201.028 7.27344 201.028 8.02051V8.08691C201.012 8.86719 200.497 9.58105 199.484 10.2617C198.754 10.71 197.974 11.0586 197.144 11.2744C196.297 11.4902 195.467 11.6729 194.62 11.8223C194.305 11.8721 194.006 11.9385 193.707 11.9883ZM200.779 23.4102V23.3604C200.779 23.2109 200.829 23.1113 200.912 23.0615C200.979 23.0283 201.028 22.9951 201.095 22.9951C201.145 22.9951 201.178 23.0117 201.228 23.0283C201.344 23.0615 201.41 23.1445 201.427 23.2607C201.311 23.2773 201.211 23.3105 201.111 23.3271C201.028 23.3438 200.962 23.3604 200.896 23.377C200.879 23.3936 200.862 23.3936 200.846 23.3936C200.829 23.3936 200.796 23.3936 200.779 23.4102ZM222.577 12.2871H222.229C222.046 12.2705 221.88 12.2705 221.714 12.2705C221.033 12.2705 220.369 12.3369 219.755 12.4863C218.975 12.6689 218.344 13.167 217.846 13.9805C217.63 14.3457 217.53 14.6611 217.53 14.9102C217.53 14.9932 217.547 15.0596 217.563 15.126C217.646 15.4082 217.829 15.7402 218.128 16.0889C218.178 16.1719 218.228 16.2383 218.294 16.3213C218.311 16.3379 218.36 16.4043 218.41 16.5039C218.526 16.6699 218.643 16.8525 218.792 17.0518C218.941 17.2676 219.058 17.4004 219.141 17.4668C219.323 17.5498 219.556 17.583 219.854 17.583H219.971C220.319 17.5664 220.651 17.5498 221 17.5166C221.299 17.4834 221.548 17.4668 221.73 17.4668C222.428 17.4668 223.075 17.6162 223.689 17.9316C224.287 18.2471 224.603 18.5293 224.619 18.7783C224.636 19.0273 224.636 19.1602 224.636 19.1768C224.636 19.625 224.188 20.0898 223.308 20.5547C222.378 21.0361 221.548 21.3184 220.801 21.418C220.07 21.5176 219.572 21.5674 219.307 21.5674C218.41 21.5674 217.613 21.3516 216.883 20.9365C216.02 20.3223 215.455 19.5254 215.189 18.5459C214.924 17.5664 214.791 16.6201 214.791 15.6904C214.791 15.3418 214.808 14.9932 214.841 14.6279C214.957 13.2832 215.223 12.0215 215.604 10.8262C215.986 9.64746 216.435 8.68457 216.949 7.9541C217.431 7.27344 217.929 6.79199 218.443 6.50977C218.975 6.24414 219.406 6.11133 219.771 6.11133C220.17 6.11133 220.568 6.21094 220.983 6.42676C221.465 6.72559 221.88 7.09082 222.229 7.53906C222.561 7.9873 222.876 8.45215 223.158 8.9502C223.44 9.41504 223.723 9.84668 224.038 10.2617C224.337 10.6768 224.702 11.042 225.134 11.3574C225.582 11.6895 225.98 11.8389 226.329 11.8389C226.412 11.8389 226.495 11.8389 226.562 11.8223C226.96 11.7227 227.392 11.374 227.84 10.793C228.271 10.2451 228.504 9.78027 228.554 9.43164C228.604 9.06641 228.637 8.80078 228.637 8.60156C228.637 8.20312 228.587 7.75488 228.487 7.29004C227.923 4.91602 226.578 3.13965 224.437 1.96094C223.557 1.5293 222.76 1.28027 222.046 1.21387C221.349 1.14746 220.784 1.11426 220.386 1.11426C219.788 1.11426 219.207 1.14746 218.626 1.23047C217.348 1.37988 216.086 1.62891 214.841 1.94434C214.227 2.12695 213.679 2.40918 213.23 2.79102C212.766 3.18945 212.317 3.6543 211.869 4.18555C211.155 4.99902 210.757 5.71289 210.657 6.29395C210.574 6.875 210.524 7.38965 210.524 7.85449C210.524 8.18652 210.541 8.53516 210.574 8.88379C210.607 9.29883 210.624 9.73047 210.641 10.2119C210.624 10.6768 210.541 11.2412 210.392 11.9219C210.309 12.2705 210.259 12.5693 210.209 12.835C210.126 13.5156 210.076 14.1963 210.076 14.8604C210.076 15.5908 210.126 16.2881 210.226 17.002C210.226 17.085 210.226 17.1846 210.242 17.2676C210.325 18.2803 210.475 19.2432 210.657 20.1895C210.84 21.1357 211.188 22.082 211.703 22.9951C212.218 23.9414 212.932 24.7051 213.828 25.2861C214.343 25.6348 214.891 25.917 215.472 26.1328C215.804 26.2822 216.119 26.4648 216.401 26.6807C216.534 26.3652 216.684 26.1992 216.833 26.1992C216.933 26.1992 217.016 26.2656 217.115 26.3818C217.265 26.3984 217.48 26.4316 217.729 26.4814C217.979 26.5312 218.178 26.5811 218.327 26.6143C218.36 26.6143 218.443 26.6309 218.576 26.6641C218.692 26.7139 218.842 26.7471 219.008 26.7969C219.157 26.8467 219.307 26.8799 219.439 26.9131C219.539 26.9463 219.622 26.9629 219.672 26.9795L219.755 27.0127C220.419 26.9795 221.083 26.8135 221.73 26.5312C222.146 26.3652 222.544 26.249 222.909 26.1826C222.959 26.1162 223.025 26.0498 223.075 26C223.125 25.9502 223.191 25.8838 223.258 25.834L223.623 26.166C224.221 26 224.852 25.6846 225.499 25.2031C226.346 24.5225 227.109 23.7256 227.757 22.8291C228.786 21.4014 229.301 19.9736 229.301 18.5293C229.301 18.3799 229.301 18.2139 229.284 18.0645C229.151 16.4541 228.504 15.1094 227.325 14.0137C226.146 12.918 224.569 12.3369 222.577 12.2871ZM226.18 6.79199C226.263 6.97461 226.312 7.12402 226.312 7.24023C226.312 7.40625 226.213 7.48926 225.997 7.48926H225.98C225.831 7.25684 225.765 7.07422 225.765 6.95801C225.765 6.8418 225.848 6.77539 226.014 6.77539C226.063 6.77539 226.113 6.77539 226.18 6.79199ZM217.829 4.40137C217.912 4.58398 217.962 4.7334 217.962 4.83301C217.962 4.99902 217.862 5.08203 217.663 5.08203H217.646C217.497 4.86621 217.414 4.68359 217.414 4.58398C217.414 4.45117 217.514 4.38477 217.68 4.38477C217.729 4.38477 217.779 4.40137 217.829 4.40137ZM216.003 5.53027C216.119 5.53027 216.202 5.58008 216.235 5.67969C216.252 5.7793 216.269 5.8623 216.269 5.92871C216.269 5.99512 216.252 6.06152 216.235 6.12793C216.202 6.26074 216.119 6.32715 216.003 6.32715V5.53027ZM214.26 8.07031L213.729 9.13281C213.679 9.0166 213.629 8.78418 213.579 8.45215C213.529 8.13672 213.496 7.87109 213.496 7.67188C213.496 7.47266 213.496 7.35645 213.496 7.32324C213.496 7.00781 213.546 6.77539 213.629 6.60938C213.729 6.42676 213.861 6.34375 214.044 6.34375C214.127 6.34375 214.21 6.36035 214.293 6.37695C214.243 6.52637 214.21 6.67578 214.16 6.79199C214.061 7.02441 214.011 7.19043 214.011 7.29004C213.994 7.40625 213.994 7.45605 213.994 7.47266C213.994 7.65527 214.077 7.85449 214.26 8.07031ZM245.139 20.2891C244.973 20.4219 244.79 20.5879 244.591 20.7705C244.159 21.1855 243.728 21.5176 243.279 21.7334C243.03 21.8164 242.731 21.8496 242.416 21.8496H242.3C241.935 21.8496 241.553 21.833 241.171 21.7832C240.822 21.75 240.507 21.7334 240.225 21.7334C240.009 21.7334 239.743 21.75 239.444 21.7832C239.112 21.7998 238.863 21.8164 238.681 21.8164C238.498 21.833 238.382 21.833 238.349 21.833C238.066 21.833 237.834 21.7998 237.618 21.7334C237.236 21.584 236.954 21.3516 236.788 21.0029C236.605 20.6543 236.489 20.2559 236.423 19.791C236.307 19.3096 236.257 18.8447 236.257 18.3965C236.257 18.2305 236.257 18.0645 236.273 17.915C236.323 17.3174 236.655 16.9023 237.27 16.6533C237.568 16.5537 237.9 16.5039 238.266 16.5039C238.365 16.5039 238.465 16.5039 238.564 16.5205C239.046 16.5537 239.527 16.6201 240.042 16.7031C240.656 16.8193 241.237 16.8857 241.769 16.8857C241.951 16.8857 242.117 16.8857 242.283 16.8691C242.897 16.8027 243.396 16.7031 243.811 16.5537C244.226 16.4209 244.524 16.1885 244.724 15.873C244.923 15.5576 245.022 15.0596 245.022 14.4121C245.022 13.7812 244.906 13.2666 244.657 12.8848C244.408 12.5029 244.06 12.2207 243.628 12.0049C243.18 11.8057 242.665 11.6562 242.084 11.5566C241.868 11.54 241.636 11.5234 241.42 11.5234C240.972 11.5234 240.54 11.5732 240.125 11.6729C239.644 11.7891 239.129 11.8389 238.598 11.8389H238.332C238.299 11.8389 238.266 11.8389 238.232 11.8223C237.784 11.8057 237.436 11.7393 237.203 11.623C236.954 11.5068 236.738 11.1914 236.556 10.71C236.406 10.2451 236.323 9.76367 236.323 9.28223C236.323 9.13281 236.323 9 236.34 8.86719V8.18652C236.34 7.45605 236.456 6.95801 236.672 6.70898C236.921 6.44336 237.436 6.31055 238.249 6.31055H238.448C238.747 6.31055 239.046 6.31055 239.345 6.29395C239.627 6.27734 239.893 6.26074 240.158 6.26074C240.341 6.26074 240.507 6.26074 240.689 6.27734C241.038 6.31055 241.42 6.37695 241.802 6.49316C242.25 6.64258 242.665 6.70898 243.047 6.70898H243.13C243.96 6.65918 244.807 6.44336 245.653 6.07812C246.5 5.71289 247.031 5.29785 247.264 4.84961C247.496 4.40137 247.612 4.05273 247.612 3.80371C247.612 3.28906 247.396 2.72461 246.965 2.11035C246.616 1.64551 246.201 1.31348 245.72 1.13086C245.238 0.948242 244.724 0.798828 244.176 0.699219L244.043 0.666016C243.495 0.549805 242.997 0.483398 242.565 0.483398H242.366C241.885 0.5 241.387 0.533203 240.855 0.616211C240.623 0.649414 240.374 0.682617 240.092 0.71582C239.942 0.732422 239.793 0.732422 239.644 0.732422C239.096 0.732422 238.548 0.666016 237.983 0.533203C237.369 0.383789 236.738 0.317383 236.091 0.300781C235.178 0.300781 234.298 0.433594 233.484 0.71582C232.654 0.998047 232.04 1.5791 231.658 2.49219C231.409 3.20605 231.276 3.90332 231.243 4.60059C231.193 5.31445 231.177 5.92871 231.177 6.47656C231.177 6.75879 231.177 7.02441 231.193 7.29004C231.21 7.63867 231.21 7.9541 231.21 8.26953C231.21 9.29883 231.193 10.3281 231.16 11.3574C231.144 12.5029 231.127 13.665 231.127 14.8105C231.144 16.8525 231.276 18.8779 231.509 20.9033C231.525 21.0693 231.592 21.3848 231.691 21.8496C231.791 22.3311 231.924 22.8125 232.09 23.3271C232.239 23.8418 232.405 24.2236 232.571 24.4561C232.737 24.6885 232.887 24.8047 233.003 24.8047C233.086 24.8047 233.186 24.7549 233.269 24.6719C233.435 24.8213 233.617 25.0205 233.8 25.2363C234.215 25.751 234.63 26.1328 235.078 26.3984C235.377 26.5479 235.742 26.6475 236.174 26.6973C236.589 26.7637 237.021 26.8135 237.436 26.8301C237.651 26.8467 237.867 26.8799 238.05 26.8965C238.996 27.0127 239.76 27.0625 240.341 27.0791C240.922 27.0957 241.254 27.0957 241.337 27.0957C242.316 27.0957 243.213 26.9795 244.06 26.7637C244.873 26.5479 245.687 26.1494 246.517 25.585C247.33 25.0205 247.911 24.3398 248.243 23.5264C248.359 23.1113 248.426 22.7461 248.426 22.4141C248.426 21.7998 248.21 21.2852 247.795 20.9033C247.28 20.4551 246.649 20.2227 245.902 20.2227C245.653 20.2227 245.404 20.2393 245.139 20.2891ZM237.668 15.043C237.751 15.043 237.801 15.0596 237.817 15.1094C237.834 15.1592 237.834 15.209 237.834 15.2422C237.834 15.2754 237.834 15.3086 237.817 15.3418C237.801 15.4082 237.751 15.4414 237.668 15.4414V15.043ZM236.473 13.4492C236.556 13.4492 236.605 13.4658 236.622 13.5156C236.639 13.5654 236.639 13.6152 236.639 13.6484C236.639 13.6816 236.639 13.7148 236.622 13.748C236.605 13.8145 236.556 13.8477 236.473 13.8477V13.4492ZM242.897 3.18945C243.246 3.33887 243.412 3.57129 243.412 3.85352V3.90332C243.379 4.20215 243.279 4.50098 243.097 4.7998C242.964 4.61719 242.848 4.48438 242.748 4.36816C242.549 4.15234 242.449 4.01953 242.433 3.93652C242.433 3.85352 242.433 3.80371 242.433 3.80371C242.433 3.6543 242.582 3.43848 242.897 3.18945ZM240.324 3.23926C240.44 3.18945 240.54 3.15625 240.606 3.15625C240.689 3.15625 240.739 3.20605 240.739 3.28906L240.723 3.37207C240.606 3.42188 240.523 3.43848 240.457 3.43848C240.357 3.43848 240.324 3.40527 240.324 3.30566V3.23926ZM241.636 3.82031C241.852 4.03613 242.067 4.26855 242.283 4.48438C242.134 4.66699 241.901 4.75 241.603 4.75C241.536 4.75 241.453 4.75 241.37 4.7334C240.955 4.66699 240.557 4.53418 240.158 4.35156C239.76 4.16895 239.478 3.98633 239.328 3.83691C239.71 3.93652 240.075 3.98633 240.457 3.98633C240.855 3.98633 241.237 3.93652 241.636 3.82031ZM238.664 3.53809V4.7168C238.548 4.50098 238.432 4.28516 238.315 4.08594C238.216 3.90332 238.133 3.7207 238.033 3.53809H238.664ZM234.945 4.30176C234.995 4.33496 235.028 4.41797 235.045 4.56738C235.062 4.7168 235.062 4.89941 235.078 5.11523C235.095 5.31445 235.111 5.51367 235.128 5.69629C235.145 5.89551 235.178 6.06152 235.228 6.19434C234.945 6.24414 234.68 6.29395 234.414 6.34375C234.397 6.22754 234.397 6.11133 234.397 5.99512C234.381 5.8457 234.381 5.69629 234.381 5.56348C234.381 5.39746 234.381 5.23145 234.414 5.09863C234.464 4.86621 234.646 4.60059 234.945 4.30176ZM234.099 12.8682L234.729 13.333C234.929 13.4824 235.145 13.6318 235.344 13.7812H233.916C233.982 13.4824 234.049 13.167 234.099 12.8682ZM233.982 14.6943C234.065 14.6611 234.132 14.6445 234.182 14.6445C234.331 14.6445 234.414 14.7607 234.414 14.96C234.414 15.0596 234.397 15.1758 234.364 15.3086C234.115 15.1758 233.982 14.9766 233.982 14.6943ZM235.045 22.1982C234.929 22.1982 234.862 22.1484 234.829 22.0488C234.796 21.9492 234.796 21.8662 234.796 21.7998C234.796 21.7334 234.796 21.667 234.812 21.6006C234.862 21.4678 234.929 21.4014 235.045 21.4014V22.1982ZM234.348 16.4209C234.165 16.2383 234.065 16.0889 234.065 15.9727C234.065 15.9395 234.082 15.9062 234.099 15.873C234.148 15.7734 234.248 15.707 234.414 15.707C234.447 15.707 234.48 15.7236 234.53 15.7236C234.746 15.7568 234.962 15.873 235.178 16.0889C235.028 16.1387 234.896 16.2051 234.763 16.2549C234.613 16.3047 234.48 16.3711 234.348 16.4209ZM235.676 12.6523C235.626 12.5361 235.609 12.4365 235.609 12.3701C235.609 12.2871 235.643 12.2373 235.742 12.2373C235.759 12.2373 235.775 12.2539 235.809 12.2539C235.858 12.3701 235.892 12.4531 235.892 12.5195C235.892 12.6191 235.842 12.6523 235.759 12.6523H235.676ZM235.609 3.83691C235.593 3.77051 235.576 3.7207 235.576 3.6875C235.576 3.53809 235.676 3.45508 235.892 3.45508C235.991 3.45508 236.107 3.47168 236.24 3.50488C236.273 3.58789 236.29 3.6709 236.29 3.7373C236.29 3.87012 236.207 3.95312 236.058 3.95312C235.941 3.95312 235.792 3.90332 235.609 3.83691ZM269.692 22.1484C268.68 21.9326 267.85 21.5508 267.186 20.9697C266.505 20.3887 265.94 19.6582 265.459 18.7783C264.994 17.9814 264.762 17.2676 264.762 16.6533C264.762 16.5205 264.778 16.3877 264.795 16.2715C264.928 15.5908 265.476 14.9434 266.422 14.3291C266.621 14.1963 266.82 14.0635 267.036 13.9307C267.617 13.582 268.182 13.2002 268.729 12.7852C269.277 12.3701 269.726 11.8721 270.091 11.291C270.605 10.4111 270.854 9.54785 270.854 8.70117V8.60156C270.838 7.72168 270.688 6.8252 270.406 5.87891C270.323 5.54688 270.257 5.26465 270.224 5.03223C270.19 4.7666 270.141 4.51758 270.058 4.28516C269.975 4.06934 269.809 3.82031 269.593 3.53809C269.028 2.90723 268.397 2.34277 267.7 1.86133C267.036 1.44629 266.322 1.14746 265.575 0.981445C264.828 0.832031 264.048 0.71582 263.268 0.666016C263.019 0.632812 262.753 0.599609 262.487 0.583008C261.574 0.466797 260.844 0.383789 260.296 0.367188C259.731 0.350586 259.366 0.333984 259.184 0.333984C258.486 0.333984 257.855 0.400391 257.291 0.549805C257.092 0.599609 256.893 0.649414 256.693 0.699219C255.813 0.898438 255.017 1.16406 254.286 1.5127C253.539 1.86133 252.975 2.45898 252.593 3.30566C252.111 4.45117 251.846 5.49707 251.779 6.45996C251.729 7.40625 251.696 8.18652 251.696 8.75098C251.696 9.53125 251.729 10.3281 251.796 11.1084C251.912 12.4697 252.062 13.748 252.244 14.9434C252.261 14.9932 252.261 15.043 252.261 15.0928C252.277 15.126 252.277 15.1592 252.277 15.209C252.36 15.7402 252.427 16.3047 252.493 16.9023C252.56 17.5 252.593 18.0312 252.609 18.5127C252.377 18.6621 252.261 18.8447 252.261 19.0605C252.261 19.127 252.277 19.21 252.294 19.2764C252.394 19.5254 252.51 19.7744 252.643 20.0234V20.123C252.643 20.4883 252.576 20.8535 252.46 21.2021C252.344 21.5508 252.294 21.9326 252.294 22.3145V22.4141C252.327 22.9785 252.443 23.6094 252.659 24.3232C252.858 25.0371 253.174 25.6016 253.605 26.0166C254.087 26.4316 254.618 26.6309 255.232 26.6309H255.282C255.896 26.6143 256.428 26.2988 256.876 25.7012C257.191 25.2197 257.374 24.7383 257.424 24.29C257.474 23.8252 257.507 23.4102 257.507 23.0117C257.507 22.8457 257.49 22.6963 257.49 22.5303C257.474 22.2812 257.474 22.0322 257.474 21.7832C257.457 21.4844 257.44 21.1523 257.424 20.8037C257.391 20.4717 257.374 20.1562 257.374 19.8408C257.374 19.4258 257.407 19.0273 257.474 18.6455C257.407 18.4629 257.374 18.3135 257.374 18.1807C257.374 17.7822 257.64 17.5664 258.188 17.5166C258.686 17.3008 259.184 17.0684 259.698 16.8525C259.881 17.4336 260.047 18.0146 260.196 18.5957C260.379 19.3096 260.578 20.0234 260.811 20.7041C261.026 21.4014 261.342 22.082 261.74 22.7627C262.936 24.7383 264.629 26.083 266.82 26.8301C267.617 27.1289 268.364 27.2783 269.062 27.2783C269.178 27.2783 269.277 27.2617 269.394 27.2617C270.19 27.2119 270.921 26.8135 271.585 26.0996C272.017 25.668 272.266 25.3359 272.349 25.1035C272.432 24.8711 272.465 24.7051 272.465 24.6055C272.465 24.3066 272.332 23.9746 272.05 23.6094C271.452 22.8291 270.672 22.3311 269.692 22.1484ZM267.767 5.72949C267.717 5.8125 267.667 5.8623 267.634 5.8623C267.567 5.8623 267.501 5.7793 267.451 5.62988C267.567 5.66309 267.667 5.69629 267.767 5.72949ZM267.235 5.39746C266.87 5.31445 266.488 5.13184 266.09 4.84961C266.289 4.7832 266.455 4.75 266.588 4.75C266.721 4.75 266.82 4.7666 266.903 4.83301C267.069 4.96582 267.186 5.14844 267.235 5.39746ZM265.708 3.78711C265.625 3.88672 265.525 3.98633 265.426 4.08594C265.193 4.33496 264.961 4.56738 264.729 4.7998C264.695 4.61719 264.679 4.46777 264.679 4.35156C264.679 4.21875 264.695 4.11914 264.745 4.06934C264.828 3.96973 265.027 3.90332 265.31 3.87012C265.426 3.85352 265.559 3.82031 265.708 3.78711ZM263.666 3.62109C263.716 3.87012 263.766 4.13574 263.815 4.40137C263.849 4.46777 263.849 4.53418 263.849 4.58398C263.849 4.7168 263.766 4.7666 263.566 4.7666C263.467 4.7666 263.367 4.7666 263.234 4.7334L262.969 4.46777C263.201 4.18555 263.434 3.90332 263.666 3.62109ZM258.271 4.43457C258.387 4.38477 258.486 4.35156 258.553 4.35156C258.636 4.35156 258.686 4.40137 258.686 4.48438L258.669 4.56738C258.553 4.61719 258.47 4.63379 258.403 4.63379C258.304 4.63379 258.271 4.60059 258.271 4.50098V4.43457ZM257.822 13.4492L257.855 13.6484L257.889 13.8145C257.723 13.8809 257.59 13.9307 257.457 13.9307C257.258 13.9307 257.108 13.8145 257.025 13.6152L257.822 13.4492ZM257.905 13.8643C258.021 13.9473 258.121 14.0137 258.221 14.0801C258.171 14.1299 258.138 14.1465 258.121 14.1631C258.088 14.1631 258.071 14.1631 258.055 14.1631H258.021C257.988 14.1465 257.972 14.1133 257.955 14.0801C257.938 14.0635 257.938 14.0303 257.922 13.9971C257.905 13.9639 257.905 13.9307 257.905 13.9141C257.905 13.8975 257.905 13.8809 257.905 13.8643ZM256.727 15.0762C256.71 15.0762 256.71 15.0762 256.693 15.0596H256.677H256.693L256.727 15.0762ZM256.345 13.3828C256.262 13.2002 256.212 13.0508 256.212 12.9512C256.212 12.7852 256.312 12.7021 256.511 12.7021H256.527C256.677 12.918 256.76 13.1006 256.76 13.2002C256.76 13.333 256.66 13.3994 256.494 13.3994C256.444 13.3994 256.395 13.3828 256.345 13.3828ZM257.457 14.9268C257.357 14.9434 257.258 14.9766 257.142 14.9932C257.042 15.0098 256.942 15.0264 256.843 15.043C256.893 14.9268 256.942 14.8271 257.025 14.7773C257.108 14.7109 257.175 14.6777 257.241 14.6777L257.308 14.6943C257.391 14.7109 257.44 14.7773 257.457 14.9268ZM256.644 5.06543C256.693 5.13184 256.727 5.14844 256.76 5.14844C256.826 5.14844 256.876 5.01562 256.909 4.7334C256.926 4.75 256.926 4.7666 256.926 4.7832C256.926 4.81641 256.926 4.84961 256.893 4.89941C256.859 4.96582 256.81 5.03223 256.743 5.11523C256.677 5.19824 256.61 5.26465 256.544 5.34766C256.494 5.39746 256.461 5.43066 256.444 5.46387C256.361 5.41406 256.312 5.34766 256.312 5.29785C256.312 5.21484 256.428 5.13184 256.644 5.06543ZM256.245 8.45215C255.996 8.88379 255.647 9.09961 255.199 9.09961C255.133 9.09961 255.066 9.08301 255 9.08301C255.1 8.9834 255.199 8.88379 255.282 8.76758C255.432 8.55176 255.548 8.41895 255.647 8.35254C255.764 8.30273 255.847 8.26953 255.896 8.26953C256.013 8.26953 256.129 8.33594 256.245 8.45215ZM255.747 10.2617C255.797 10.3779 255.83 10.4609 255.83 10.5273C255.83 10.627 255.78 10.6602 255.697 10.6602H255.614C255.564 10.5439 255.548 10.4443 255.548 10.3779C255.548 10.2949 255.581 10.2451 255.681 10.2451C255.697 10.2451 255.714 10.2617 255.747 10.2617ZM254.685 7.62207C254.801 7.57227 254.9 7.53906 254.967 7.53906C255.05 7.53906 255.1 7.58887 255.1 7.67188L255.083 7.75488C254.967 7.80469 254.884 7.82129 254.817 7.82129C254.718 7.82129 254.685 7.78809 254.685 7.68848V7.62207ZM255.896 11.125C255.847 11.4404 255.797 11.7393 255.747 12.0547C255.398 11.8057 255.066 11.5566 254.734 11.3076C254.635 11.2578 254.552 11.1914 254.469 11.125H255.896ZM254.95 12.6523C254.867 12.6523 254.834 12.6191 254.817 12.5693C254.801 12.5195 254.784 12.4863 254.784 12.4531C254.784 12.4199 254.784 12.3867 254.801 12.3535C254.817 12.2871 254.867 12.2539 254.95 12.2539V12.6523ZM256.312 18.1309C256.312 17.7656 256.361 17.5664 256.444 17.5166C256.544 17.4668 256.644 17.4502 256.76 17.4502C256.826 17.4502 256.909 17.4502 256.992 17.4668C257.142 17.4834 257.291 17.5 257.474 17.5C257.374 17.5498 257.274 17.5996 257.175 17.6494C256.893 17.8154 256.594 17.9814 256.312 18.1309ZM257.125 16.2383C257.025 16.0225 256.992 15.8564 256.992 15.7236C256.992 15.5078 257.108 15.3916 257.357 15.3916C257.44 15.3916 257.557 15.4082 257.673 15.4414C257.656 15.8232 257.474 16.0889 257.125 16.2383ZM257.839 15.4248H257.872L257.889 15.4414H257.872C257.855 15.4414 257.855 15.4414 257.839 15.4248ZM258.055 15.4414C258.071 15.0596 258.254 14.7939 258.603 14.6445C258.702 14.8604 258.735 15.0264 258.735 15.1592C258.735 15.375 258.619 15.4912 258.37 15.4912C258.287 15.4912 258.171 15.4746 258.055 15.4414ZM262.271 16.2715C262.222 16.2051 262.188 16.1885 262.155 16.1885C262.089 16.1885 262.039 16.3213 262.006 16.6035C261.989 16.5869 261.989 16.5537 261.989 16.5205C261.989 16.5039 261.989 16.4707 262.006 16.4375C262.056 16.3711 262.105 16.3047 262.172 16.2217C262.238 16.1387 262.305 16.0723 262.371 15.9893C262.421 15.9395 262.454 15.9062 262.471 15.873C262.554 15.9229 262.604 15.9893 262.604 16.0391C262.604 16.1221 262.487 16.2051 262.271 16.2715ZM262.67 17.2676C262.67 17.002 262.72 16.8193 262.836 16.7363C262.936 16.6533 263.019 16.6201 263.085 16.6201C263.201 16.6201 263.351 16.7031 263.5 16.8857C263.218 17.0186 262.952 17.1514 262.67 17.2676ZM258.055 11.9883C258.005 11.7061 257.922 11.3906 257.822 11.0088C257.573 10.2119 257.424 9.53125 257.341 8.9668C257.258 8.40234 257.225 8.02051 257.225 7.82129C257.225 7.20703 257.374 6.69238 257.673 6.27734C258.021 5.92871 258.387 5.74609 258.802 5.72949C259.2 5.72949 259.433 5.72949 259.482 5.72949C260.196 5.72949 260.943 5.7959 261.69 5.94531C262.504 6.09473 263.135 6.24414 263.616 6.37695C264.795 6.72559 265.376 7.27344 265.376 8.02051V8.08691C265.359 8.86719 264.845 9.58105 263.832 10.2617C263.102 10.71 262.321 11.0586 261.491 11.2744C260.645 11.4902 259.814 11.6729 258.968 11.8223C258.652 11.8721 258.354 11.9385 258.055 11.9883ZM265.127 23.4102V23.3604C265.127 23.2109 265.177 23.1113 265.26 23.0615C265.326 23.0283 265.376 22.9951 265.442 22.9951C265.492 22.9951 265.525 23.0117 265.575 23.0283C265.691 23.0615 265.758 23.1445 265.774 23.2607C265.658 23.2773 265.559 23.3105 265.459 23.3271C265.376 23.3438 265.31 23.3604 265.243 23.377C265.227 23.3936 265.21 23.3936 265.193 23.3936C265.177 23.3936 265.144 23.3936 265.127 23.4102Z" fill="#92391E"/>
</svg>
